<?xml version="1.0" standalone="no"?>
<!DOCTYPE svg PUBLIC "-//W3C//DTD SVG 20010904//EN"
 "http://www.w3.org/TR/2001/REC-SVG-20010904/DTD/svg10.dtd">
<svg version="1.0" xmlns="http://www.w3.org/2000/svg"
 width="1080.000000pt" height="1080.000000pt" viewBox="0 0 1080.000000 1080.000000"
 preserveAspectRatio="xMidYMid meet">
<metadata>
Created by potrace 1.16, written by Peter Selinger 2001-2019
</metadata>
<g transform="translate(0.000000,1080.000000) scale(0.100000,-0.100000)"
fill="#000000" stroke="none">
<path d="M6010 10117 c0 -2 -32 -222 -70 -487 -39 -266 -69 -484 -67 -487 5
-4 120 -24 122 -20 3 4 144 981 142 983 -5 6 -127 16 -127 11z"/>
<path d="M4413 10007 c-185 -42 -313 -76 -313 -83 0 -18 197 -895 202 -900 6
-6 110 16 120 25 4 3 -11 86 -33 185 -22 98 -38 180 -37 182 3 2 445 104 453
104 5 0 -17 95 -24 103 -4 4 -108 -15 -232 -42 -123 -27 -224 -49 -225 -48 -4
5 -71 312 -68 315 1 2 112 28 246 58 134 30 248 56 254 58 14 5 -6 109 -22
112 -5 1 -150 -30 -321 -69z"/>
<path d="M6421 10013 c-11 -42 -221 -922 -221 -927 0 -5 120 -29 124 -25 11
14 227 952 220 958 -8 7 -92 31 -108 31 -3 0 -10 -17 -15 -37z"/>
<path d="M5017 9873 c-3 -5 -2 -121 2 -259 l6 -251 30 -58 c83 -161 330 -195
478 -65 l37 32 0 -51 0 -51 60 0 60 0 0 233 c0 129 -3 289 -7 355 l-6 122 -61
0 -61 0 0 -223 c0 -213 -1 -224 -24 -270 -15 -30 -38 -58 -64 -75 -36 -24 -50
-27 -126 -27 -75 0 -90 3 -120 24 -60 43 -68 78 -76 339 l-8 232 -58 0 c-32 0
-60 -3 -62 -7z"/>
<path d="M6868 9808 c-49 -13 -121 -77 -147 -131 -27 -56 -28 -144 -2 -195 26
-50 88 -109 218 -206 152 -114 180 -166 133 -244 -46 -75 -149 -80 -287 -12
-83 41 -165 109 -201 168 l-18 31 -42 -42 -43 -43 29 -40 c131 -181 417 -285
578 -210 97 45 158 160 135 253 -23 89 -57 126 -251 270 -135 101 -166 162
-117 234 34 50 61 61 144 56 94 -5 183 -48 263 -126 l59 -58 41 42 41 41 -64
61 c-131 126 -327 189 -469 151z"/>
<path d="M7631 9388 c-50 -87 -44 -83 -87 -56 -22 14 -44 28 -51 31 -7 5 -22
-9 -39 -38 -14 -25 -25 -47 -23 -49 2 -2 25 -15 52 -30 26 -16 45 -31 43 -34
-2 -4 -48 -79 -101 -167 -54 -88 -106 -178 -116 -200 -25 -54 -24 -126 1 -176
36 -69 142 -132 215 -127 l40 3 3 48 c3 45 2 47 -23 47 -34 0 -102 35 -115 59
-25 48 -12 85 86 247 52 88 102 169 110 181 l14 22 85 -51 c49 -29 89 -47 94
-42 4 5 17 25 29 45 l21 35 -84 50 c-47 27 -85 53 -85 58 0 4 16 35 36 68 20
33 32 63 28 67 -5 5 -30 20 -56 35 l-46 27 -31 -53z"/>
<path d="M2881 9104 c-47 -51 -60 -78 -85 -178 -1 -4 -15 10 -30 33 -17 25
-33 38 -40 33 -65 -42 -85 -59 -81 -70 7 -18 406 -562 412 -562 3 0 27 16 54
36 l49 35 -38 52 c-21 29 -70 95 -109 148 -39 53 -80 114 -91 136 -49 95 -37
171 39 247 l48 48 -29 44 c-17 23 -34 45 -39 48 -5 3 -32 -19 -60 -50z"/>
<path d="M3713 8965 c-57 -25 -71 -93 -29 -142 19 -22 32 -28 66 -28 81 0 118
85 63 144 -35 37 -60 44 -100 26z"/>
<path d="M7986 8913 c-4 -21 -9 -46 -12 -55 -4 -14 1 -18 25 -18 79 0 218 -87
256 -161 20 -38 19 -97 -3 -139 -34 -62 -41 -61 -143 28 -113 98 -192 142
-259 142 -106 0 -195 -90 -194 -195 2 -131 146 -271 291 -283 l53 -4 -26 -31
-25 -30 43 -38 c24 -21 46 -37 50 -36 10 3 274 314 307 362 79 114 67 225 -36
336 -60 64 -132 112 -211 138 -92 31 -108 29 -116 -16z m-49 -331 c39 -21 203
-160 203 -172 0 -23 -65 -81 -102 -91 -110 -29 -258 73 -258 177 1 84 80 127
157 86z"/>
<path d="M2383 8650 c-96 -20 -191 -95 -244 -192 -32 -59 -34 -69 -34 -158 0
-85 3 -101 29 -153 37 -72 118 -150 193 -185 48 -22 72 -27 138 -27 71 0 88 4
149 34 129 63 224 188 234 306 l5 63 -49 4 c-27 3 -52 3 -56 1 -5 -2 -8 -20
-8 -39 0 -119 -133 -246 -259 -248 -53 -1 -141 26 -141 44 0 4 88 97 195 207
107 111 195 206 195 211 0 18 -83 80 -141 106 -62 28 -145 39 -206 26z m155
-130 c23 -10 42 -22 42 -26 0 -7 -299 -317 -311 -322 -11 -5 -46 67 -54 110
-16 86 49 198 140 239 52 24 129 24 183 -1z"/>
<path d="M8525 8317 c-113 -38 -199 -110 -243 -205 -23 -49 -27 -70 -27 -147
0 -77 4 -98 27 -148 36 -77 125 -169 191 -197 28 -12 78 -25 111 -28 l59 -5
-6 39 c-4 21 -7 49 -7 62 0 19 -5 22 -35 22 -79 0 -160 58 -201 145 -41 87
-28 175 39 251 79 90 203 122 295 75 90 -46 151 -154 139 -245 l-6 -43 40 -12
c23 -7 47 -15 54 -18 9 -3 18 10 25 39 50 182 -139 413 -347 424 -40 2 -85 -2
-108 -9z"/>
<path d="M1857 8016 c-71 -20 -151 -80 -196 -147 -54 -81 -64 -117 -59 -210
l5 -78 -44 30 -43 30 -30 -48 c-17 -26 -29 -52 -27 -57 3 -10 794 -516 807
-516 9 0 74 100 68 105 -2 1 -70 44 -151 96 l-148 94 55 18 c72 24 143 88 187
169 32 60 34 68 34 163 0 92 -2 104 -29 153 -84 151 -278 241 -429 198z m190
-144 c64 -33 104 -72 129 -127 73 -156 -42 -335 -215 -335 -144 1 -272 132
-258 266 10 93 74 179 158 211 46 17 137 10 186 -15z"/>
<path d="M9105 7713 c-181 -96 -376 -199 -432 -229 l-102 -55 26 -54 c15 -30
31 -55 35 -55 5 0 44 20 88 43 l80 44 89 -31 c49 -17 92 -34 95 -37 3 -3 -31
-88 -74 -189 -44 -101 -80 -190 -80 -199 1 -9 16 -45 34 -80 l32 -63 104 233
c57 129 107 238 111 243 4 4 85 -17 181 -47 95 -30 184 -58 197 -62 23 -7 22
-5 -14 61 l-37 69 -232 83 c-128 46 -237 87 -243 90 -6 4 82 56 195 116 114
60 240 127 280 149 l72 39 -27 51 c-16 28 -32 52 -38 53 -5 1 -158 -76 -340
-173z"/>
<path d="M1410 7198 c-63 -24 -146 -102 -179 -166 -60 -118 -64 -241 -12 -347
38 -76 92 -127 180 -169 58 -27 77 -31 151 -31 76 0 93 3 152 33 79 39 129 92
172 181 42 89 49 207 16 293 -29 79 -96 150 -178 190 -58 29 -78 33 -157 35
-72 2 -101 -1 -145 -19z m247 -134 c159 -76 189 -268 61 -391 -64 -62 -157
-78 -250 -43 -106 40 -168 119 -168 217 0 196 176 304 357 217z"/>
<path d="M9456 6535 c-236 -41 -431 -76 -433 -79 -9 -8 67 -437 87 -493 75
-215 249 -335 462 -320 258 17 425 184 444 442 3 53 -5 125 -33 295 l-38 225
-30 2 c-17 1 -223 -32 -459 -72z m398 -102 c30 -149 47 -286 42 -341 -16 -186
-155 -313 -346 -316 -98 -1 -165 22 -229 80 -77 69 -108 143 -139 328 -15 85
-24 157 -22 159 6 6 634 115 667 116 16 1 23 -6 27 -26z"/>
<path d="M766 6458 c-7 -19 -25 -112 -23 -114 3 -3 958 -204 966 -204 11 0 33
112 24 121 -5 3 -215 50 -468 103 -253 53 -468 99 -478 102 -9 3 -19 -1 -21
-8z"/>
<path d="M1190 6036 c-100 -28 -174 -91 -219 -185 -23 -49 -26 -69 -26 -156 0
-89 3 -106 28 -157 35 -71 110 -140 185 -169 86 -34 217 -33 293 3 31 14 75
42 98 63 114 103 149 327 74 473 -39 77 -51 82 -102 45 l-41 -30 25 -33 c72
-98 58 -268 -29 -355 -39 -39 -127 -77 -142 -62 -3 3 3 132 13 287 10 155 16
283 14 286 -9 9 -128 2 -171 -10z m70 -143 c0 -21 -5 -122 -12 -225 -11 -184
-12 -188 -34 -188 -12 0 -43 15 -70 33 -65 44 -94 100 -94 184 0 108 51 184
147 219 58 20 63 18 63 -23z"/>
<path d="M9363 5502 c-105 -38 -172 -104 -215 -212 -17 -43 -22 -77 -22 -155
-1 -88 2 -107 25 -155 14 -30 35 -66 46 -80 l21 -24 41 28 c23 16 40 32 39 35
-2 4 -16 33 -33 66 -54 108 -35 244 46 324 37 37 85 61 123 61 25 0 25 -1 20
-62 -15 -192 -32 -503 -28 -508 3 -3 38 -4 77 -3 142 3 257 76 314 198 24 52
28 72 28 150 0 76 -4 99 -27 146 -36 79 -89 133 -165 171 -84 41 -207 50 -290
20z m277 -151 c31 -19 52 -42 73 -81 25 -48 28 -63 24 -117 -8 -110 -81 -197
-176 -210 l-42 -6 6 64 c5 62 25 361 25 380 0 14 37 2 90 -30z"/>
<path d="M934 5193 c4 -32 11 -60 16 -63 5 -3 137 -43 294 -90 157 -46 282
-88 277 -93 -4 -4 -122 -74 -262 -156 l-254 -147 3 -60 c2 -32 7 -62 10 -65 6
-6 549 309 642 371 21 15 22 20 16 80 l-7 65 -362 108 c-199 59 -366 107 -371
107 -5 0 -6 -26 -2 -57z"/>
<path d="M9399 4621 c-190 -32 -350 -60 -355 -64 -6 -3 -16 -32 -23 -63 -12
-52 -11 -58 6 -74 10 -10 146 -118 303 -240 l284 -222 11 33 c31 90 49 67
-216 274 -132 103 -237 191 -232 195 4 4 140 27 301 51 l293 44 9 35 c24 95
25 90 -6 89 -16 0 -184 -27 -375 -58z"/>
<path d="M1602 4500 l-23 -40 59 -57 c41 -41 64 -73 75 -107 24 -69 22 -159
-4 -212 -21 -44 -80 -104 -102 -104 -7 0 -48 112 -97 266 -46 147 -90 269 -97
271 -20 8 -137 -51 -182 -92 -190 -172 -110 -507 141 -591 161 -53 373 38 444
192 74 158 14 381 -130 485 -21 16 -44 29 -50 29 -6 0 -21 -18 -34 -40z m-162
-335 c35 -110 65 -206 68 -212 7 -21 -87 -15 -138 8 -59 27 -77 44 -108 104
-51 100 -24 224 61 286 22 16 44 26 47 22 4 -5 35 -98 70 -208z"/>
<path d="M8993 4026 c-170 -55 -300 -276 -264 -448 7 -32 15 -60 19 -62 4 -2
29 1 55 7 47 10 48 11 41 41 -15 69 -6 137 26 202 36 75 86 119 155 140 42 12
135 11 135 -2 0 -1 -54 -118 -120 -259 -66 -141 -118 -261 -115 -265 3 -5 31
-19 63 -31 87 -34 199 -33 274 4 73 36 149 119 179 195 34 84 32 197 -3 274
-57 123 -187 209 -327 215 -46 2 -93 -3 -118 -11z m297 -197 c48 -49 64 -87
64 -154 0 -134 -100 -236 -228 -234 -82 1 -82 -6 22 217 52 111 99 202 103
202 4 0 21 -14 39 -31z"/>
<path d="M1695 3740 c-216 -44 -379 -217 -392 -418 -6 -90 13 -185 53 -265 25
-50 208 -360 226 -384 7 -8 121 56 401 224 216 129 396 238 401 243 5 5 -44
96 -110 206 -136 226 -201 300 -305 351 -95 46 -186 61 -274 43z m198 -146
c52 -18 120 -67 155 -111 32 -41 172 -269 172 -281 0 -7 -574 -355 -594 -359
-14 -4 -150 225 -178 299 -31 80 -29 187 4 260 76 164 273 250 441 192z"/>
<path d="M8525 3372 c-16 -26 -30 -50 -30 -55 0 -4 185 -129 410 -277 l410
-270 20 25 c11 14 28 37 37 53 l17 28 -413 272 c-227 150 -415 272 -417 272
-2 0 -17 -21 -34 -48z"/>
<path d="M8372 3055 c-77 -22 -110 -41 -172 -104 -64 -64 -96 -124 -112 -209
-21 -112 32 -250 126 -327 117 -96 253 -116 379 -57 156 72 252 242 227 398
-33 204 -256 353 -448 299z m173 -139 c58 -27 128 -101 146 -153 6 -19 9 -61
7 -93 -9 -122 -111 -220 -230 -220 -156 0 -292 159 -258 300 19 78 80 151 151
179 45 18 131 12 184 -13z"/>
<path d="M7675 2778 c-22 -16 -44 -33 -48 -38 -7 -6 64 -113 179 -265 l23 -30
-77 -1 c-93 -1 -148 -24 -226 -95 -167 -152 -144 -408 50 -557 58 -45 118 -65
199 -65 81 0 138 19 212 69 55 38 118 120 128 169 16 72 15 71 50 30 l32 -39
46 34 c26 18 47 35 47 37 0 6 -561 773 -569 777 -3 2 -24 -10 -46 -26z m175
-444 c64 -19 139 -91 165 -158 27 -69 18 -164 -21 -218 -67 -96 -201 -136
-298 -88 -89 43 -156 150 -156 249 0 87 79 187 170 216 59 18 76 18 140 -1z"/>
<path d="M2619 2675 c-152 -49 -269 -205 -269 -360 0 -91 29 -162 96 -234 68
-74 149 -113 235 -114 l59 0 -18 -21 c-10 -12 -67 -78 -125 -148 l-107 -126
49 -42 50 -41 104 123 c58 68 202 238 321 378 l216 255 -46 42 -46 43 -31 -40
c-18 -21 -35 -39 -39 -39 -5 -1 -8 18 -8 42 0 93 -94 212 -207 264 -69 32
-167 39 -234 18z m207 -134 c54 -25 109 -83 130 -137 63 -166 -111 -372 -282
-334 -199 45 -263 270 -119 415 74 73 183 96 271 56z"/>
<path d="M3324 2189 l-31 -9 12 -52 c9 -37 17 -52 26 -49 8 3 41 4 74 4 147 0
275 -118 275 -254 0 -30 -4 -60 -9 -68 -7 -11 -60 14 -253 118 -135 72 -250
131 -257 131 -25 0 -65 -111 -69 -195 -7 -149 56 -253 196 -322 70 -35 82 -38
162 -38 71 1 94 5 141 28 31 15 77 49 102 76 168 179 144 428 -54 560 -102 68
-227 96 -315 70z m101 -419 c105 -56 192 -104 194 -106 8 -8 -45 -56 -84 -77
-55 -29 -145 -29 -201 0 -97 51 -150 158 -125 251 7 23 15 41 19 39 4 -3 93
-51 197 -107z"/>
<path d="M7000 2040 c-57 -12 -154 -60 -203 -101 -35 -29 -97 -121 -97 -145 0
-8 80 -54 94 -54 2 0 6 10 10 23 9 39 74 105 129 132 67 32 142 42 201 25 46
-13 126 -72 126 -93 0 -7 -80 -48 -178 -91 -97 -44 -214 -97 -260 -118 l-83
-37 30 -58 c34 -69 113 -146 179 -176 35 -16 67 -21 127 -21 69 -1 89 4 146
31 88 41 142 92 179 167 39 80 47 153 26 236 -42 164 -162 272 -316 284 -36 3
-85 1 -110 -4z m315 -354 c14 -89 -42 -183 -135 -232 -50 -26 -143 -24 -196 4
-38 19 -100 80 -91 88 7 8 393 182 404 183 7 1 15 -19 18 -43z"/>
<path d="M4197 1843 c-2 -4 -116 -194 -251 -422 -136 -227 -245 -416 -242
-418 2 -2 29 -10 59 -17 l56 -13 206 344 c114 190 208 343 210 341 2 -2 23
-180 46 -397 49 -439 37 -401 125 -415 l42 -7 208 340 c114 188 209 340 210
338 1 -1 21 -175 43 -387 23 -212 43 -390 45 -396 4 -10 124 -40 130 -32 5 6
-101 969 -107 975 -9 9 -127 34 -135 29 -5 -3 -98 -153 -207 -335 -110 -181
-201 -328 -203 -327 -1 2 -20 158 -42 347 -54 476 -44 427 -88 438 -72 18
-100 22 -105 14z"/>
<path d="M6433 1827 c-23 -7 -44 -15 -48 -18 -3 -4 17 -91 45 -195 27 -104 50
-209 50 -234 -1 -87 -56 -164 -137 -190 -21 -7 -42 -16 -47 -20 -9 -9 11 -107
23 -115 4 -2 34 9 67 24 61 30 111 75 136 125 l15 29 13 -51 c6 -29 16 -52 20
-52 29 0 110 25 110 34 0 6 -40 159 -88 341 -63 235 -92 330 -102 332 -8 0
-34 -4 -57 -10z"/>
<path d="M5612 1675 c-65 -55 -30 -159 53 -159 51 0 85 36 85 89 0 48 -28 81
-76 91 -24 4 -37 0 -62 -21z"/>
</g>
</svg>
