<svg version="1.1" id="Layer_1" xmlns="http://www.w3.org/2000/svg" xmlns:xlink="http://www.w3.org/1999/xlink" x="0px" y="0px"
	 width="100%" viewBox="0 0 1080 1080" enable-background="new 0 0 1080 1080" xml:space="preserve">
<path fill="#000000" opacity="1.000000" stroke="none" 
	d="
M680.000000,1081.000000 
	C454.859253,1081.000000 230.218521,1080.990479 5.577811,1081.084473 
	C1.974040,1081.085938 0.893990,1080.505615 0.895232,1076.578857 
	C1.008109,719.620056 1.009536,362.661224 0.883510,5.702443 
	C0.882043,1.548276 1.841012,0.894830 5.796534,0.896072 
	C362.588654,1.008103 719.380798,1.007640 1076.172974,0.900427 
	C1080.064941,0.899257 1081.121826,1.452564 1081.120239,5.671919 
	C1080.989990,362.464020 1080.989624,719.256165 1081.121216,1076.048340 
	C1081.122803,1080.407349 1080.056396,1081.106812 1075.952637,1081.102905 
	C944.135193,1080.977905 812.317566,1081.000000 680.000000,1081.000000 
z"/>
<path fill="#ADADAD" opacity="1.000000" stroke="none" 
	d="
M556.671143,108.699898 
	C556.842468,117.662468 556.842468,126.287521 556.842468,134.912567 
	C556.578857,134.915482 556.315247,134.918396 556.051636,134.921310 
	C556.051636,126.602486 556.051636,118.283669 556.104614,109.501190 
	C556.271606,108.812492 556.385742,108.587440 556.671143,108.699898 
z"/>
<path fill="#4F4F4F" opacity="1.000000" stroke="none" 
	d="
M515.694519,111.625244 
	C515.889832,119.663750 515.889832,127.426910 515.889832,135.190079 
	C515.553650,135.190628 515.217468,135.191193 514.881287,135.191757 
	C514.881287,127.737038 514.881287,120.282326 514.995728,112.364655 
	C515.239868,111.717766 515.369507,111.533836 515.694519,111.625244 
z"/>
<path fill="#8D8D8D" opacity="1.000000" stroke="none" 
	d="
M569.129578,93.375748 
	C571.008972,100.604935 569.481567,108.310074 569.842407,116.425644 
	C569.718811,117.135262 569.610107,117.383553 569.336975,117.259995 
	C569.120483,109.179977 569.068298,101.471802 569.129578,93.375748 
z"/>
<path fill="#ADADAD" opacity="1.000000" stroke="none" 
	d="
M502.444031,113.511902 
	C502.786346,120.443741 502.786346,127.838791 502.786346,135.233841 
	C502.558136,135.238647 502.329895,135.243439 502.101685,135.248245 
	C502.101685,128.157196 502.101685,121.066154 502.444031,113.511902 
z"/>
<path fill="#4F4F4F" opacity="1.000000" stroke="none" 
	d="
M569.068970,117.354324 
	C569.172607,116.888153 569.500000,116.886108 569.663696,116.886536 
	C569.827454,123.687744 569.827454,130.488525 569.827454,137.289307 
	C569.540039,137.294037 569.252686,137.298767 568.965271,137.303497 
	C568.965271,130.809158 568.965271,124.314827 569.068970,117.354324 
z"/>
<path fill="#8D8D8D" opacity="1.000000" stroke="none" 
	d="
M502.879028,112.585434 
	C502.786346,113.048691 502.500061,113.077843 502.356842,113.063980 
	C502.202423,106.548981 502.191223,100.047844 502.545898,93.337494 
	C503.153992,93.249390 503.396179,93.370499 503.346802,93.774399 
	C503.027405,100.078857 502.999542,106.100517 502.879028,112.585434 
z"/>
<path fill="#ADADAD" opacity="1.000000" stroke="none" 
	d="
M515.886841,111.438797 
	C515.889832,111.900589 515.500122,112.000565 515.305176,111.951126 
	C515.068542,106.266891 515.026794,100.632095 514.939941,94.536102 
	C514.715942,93.866913 514.537109,93.658920 514.734741,93.284882 
	C517.159607,98.994080 515.364441,105.035614 515.886841,111.438797 
z"/>
<path fill="#8D8D8D" opacity="1.000000" stroke="none" 
	d="
M556.927979,108.574127 
	C556.842468,109.037415 556.500000,109.030159 556.328735,109.033852 
	C556.168274,103.888023 556.179016,98.738503 556.378906,93.205482 
	C556.716431,97.918274 556.864929,103.014557 556.927979,108.574127 
z"/>
<path fill="#8D8D8D" opacity="1.000000" stroke="none" 
	d="
M957.193726,502.945190 
	C958.339478,503.056793 959.133179,503.150909 961.408630,503.420715 
	C956.770142,504.296783 953.620483,504.196655 949.785522,503.767029 
	C952.494019,502.475311 954.705627,503.060181 957.193726,502.945190 
z"/>
<path fill="#8D8D8D" opacity="1.000000" stroke="none" 
	d="
M955.005005,544.503540 
	C955.934875,548.190491 956.397400,551.756348 955.609436,555.423462 
	C954.693481,552.398254 954.637451,549.365845 956.044006,546.452087 
	C956.539062,545.426453 956.897095,544.676086 955.005005,544.503540 
z"/>
<path fill="#4F4F4F" opacity="1.000000" stroke="none" 
	d="
M913.216064,564.265503 
	C913.469360,567.330261 913.740845,570.731750 914.012390,574.133240 
	C913.753052,574.143372 913.493652,574.153503 913.234253,574.163635 
	C913.234253,570.976501 913.234253,567.789307 913.216064,564.265503 
z"/>
<path fill="#8D8D8D" opacity="1.000000" stroke="none" 
	d="
M944.992310,581.346069 
	C944.014404,578.150696 943.509583,575.302551 944.551208,572.448486 
	C945.077820,575.632202 945.619629,578.818726 943.635010,581.792480 
	C943.010376,582.728577 942.950745,583.896423 944.322510,583.976990 
	C946.066284,584.079346 946.005676,582.914307 944.992310,581.346069 
z"/>
<path fill="#8D8D8D" opacity="1.000000" stroke="none" 
	d="
M137.145538,476.072693 
	C138.177307,478.272156 138.340439,480.467285 137.721344,482.821930 
	C135.657761,481.055328 138.495956,477.991974 135.693802,476.644012 
	C134.901352,476.262756 134.454666,474.946167 133.298233,475.683990 
	C133.056320,475.838348 132.956360,476.670654 133.144211,476.965668 
	C134.032150,478.360168 134.662857,477.113403 135.388458,476.670563 
	C135.797226,476.421051 136.264328,476.267151 137.145538,476.072693 
z"/>
<path fill="#8D8D8D" opacity="1.000000" stroke="none" 
	d="
M167.924683,508.006744 
	C167.934036,510.064148 167.934036,511.673187 167.934036,513.282227 
	C167.727142,513.284729 167.520248,513.287292 167.313354,513.289795 
	C167.313354,509.776489 167.313354,506.263184 167.313354,502.094666 
	C168.497208,504.233398 167.725693,505.952240 167.924683,508.006744 
z"/>
<path fill="#4F4F4F" opacity="1.000000" stroke="none" 
	d="
M1002.065796,471.708740 
	C1002.087219,469.180664 1002.087219,467.075562 1002.087219,464.970459 
	C1002.309509,464.970795 1002.531799,464.971130 1002.754089,464.971497 
	C1002.754089,468.317627 1002.754089,471.663757 1002.754089,475.197296 
	C1001.438599,474.259552 1002.188904,473.103912 1002.065796,471.708740 
z"/>
<path fill="#8D8D8D" opacity="1.000000" stroke="none" 
	d="
M136.081787,487.774719 
	C137.222366,491.015564 137.055481,494.190674 137.089203,498.388000 
	C134.498169,494.154327 137.524918,490.797577 136.081787,487.774719 
z"/>
<path fill="#8D8D8D" opacity="1.000000" stroke="none" 
	d="
M134.996979,523.910522 
	C134.925003,525.421814 135.536057,526.618164 134.223846,527.778992 
	C133.921829,524.689514 133.463318,521.856873 135.241364,519.217590 
	C135.707642,518.525513 136.090652,517.740051 135.092377,517.211670 
	C134.745529,517.028137 134.060837,517.042358 133.773315,517.271301 
	C132.966660,517.913635 133.289047,518.736328 133.864304,519.327209 
	C135.032242,520.526917 134.738159,522.060059 134.996979,523.910522 
z"/>
<path fill="#8D8D8D" opacity="1.000000" stroke="none" 
	d="
M925.052429,567.974121 
	C924.938904,569.589417 924.823303,570.848389 924.596619,573.316772 
	C923.763000,569.317749 923.749329,566.554260 924.612915,562.677429 
	C924.823181,565.052795 924.936768,566.335388 925.052429,567.974121 
z"/>
<path fill="#8D8D8D" opacity="1.000000" stroke="none" 
	d="
M954.071289,584.623108 
	C953.826538,585.477905 953.601868,587.231506 953.178528,585.885559 
	C952.474426,583.646912 952.790833,581.010742 953.734253,578.656982 
	C954.051086,577.866577 955.264038,577.131470 953.837036,576.308838 
	C953.624939,576.186523 953.167419,576.241577 952.962524,576.397461 
	C952.009338,577.122131 952.726562,577.767456 953.122314,578.426331 
	C954.201904,580.224060 953.815430,582.263000 954.071289,584.623108 
z"/>
<path fill="#8D8D8D" opacity="1.000000" stroke="none" 
	d="
M945.663025,598.998230 
	C949.173828,598.994751 952.265747,598.994751 955.357605,598.994751 
	C955.353699,599.297302 955.349731,599.599854 955.345825,599.902405 
	C951.929810,599.902405 948.513794,599.905884 945.097839,599.889160 
	C944.969238,599.888550 944.841553,599.692749 944.713379,599.587891 
	C944.890259,599.392456 945.067200,599.197083 945.663025,598.998230 
z"/>
<path fill="#8D8D8D" opacity="1.000000" stroke="none" 
	d="
M843.661377,774.828125 
	C842.937378,774.857666 842.607971,774.868286 842.294250,774.803467 
	C841.747559,774.690369 841.710205,774.310547 842.170044,774.309265 
	C845.555359,774.299927 848.933716,774.690735 852.332581,774.775208 
	C849.576111,774.775208 846.819580,774.775208 843.661377,774.828125 
z"/>
<path fill="#4F4F4F" opacity="1.000000" stroke="none" 
	d="
M809.954102,811.936646 
	C809.782959,813.994751 810.597839,815.670166 809.237427,817.966125 
	C809.237427,813.651489 809.237427,810.068848 809.237427,806.131531 
	C810.886841,808.005676 809.729431,809.823120 809.954102,811.936646 
z"/>
<path fill="#8D8D8D" opacity="1.000000" stroke="none" 
	d="
M848.626221,848.152954 
	C849.864197,848.050598 850.704834,847.791382 851.630615,848.725342 
	C847.865601,849.137695 844.312744,848.189453 840.763184,848.202209 
	C843.240906,848.202209 845.718567,848.202209 848.626221,848.152954 
z"/>
<path fill="#4F4F4F" opacity="1.000000" stroke="none" 
	d="
M514.643311,93.157654 
	C515.111206,93.118843 515.037537,93.604706 514.966187,93.839806 
	C511.251221,94.044876 507.607635,94.014854 503.509644,94.021011 
	C503.055237,94.057190 502.967865,93.595154 502.939819,93.361717 
	C506.666321,93.151009 510.420868,93.173744 514.643311,93.157654 
z"/>
<path fill="#ADADAD" opacity="1.000000" stroke="none" 
	d="
M569.353149,92.911507 
	C565.448181,92.928307 561.518311,92.984322 557.078247,92.931160 
	C556.567993,92.821983 556.618164,92.911491 556.660645,92.916550 
	C560.612793,90.909126 564.705261,92.187645 568.986694,92.620880 
	C569.242981,92.987869 569.328186,92.950722 569.353149,92.911507 
z"/>
<path fill="#8D8D8D" opacity="1.000000" stroke="none" 
	d="
M113.831657,661.169312 
	C113.803467,663.491455 113.803467,665.380249 113.803467,667.268982 
	C113.611130,667.259888 113.418793,667.250793 113.226456,667.241699 
	C113.226456,664.044800 113.226456,660.847961 113.226456,657.448914 
	C114.571968,658.541321 113.731644,659.705505 113.831657,661.169312 
z"/>
<path fill="#8D8D8D" opacity="1.000000" stroke="none" 
	d="
M778.929749,908.735474 
	C776.923218,908.513733 775.307068,909.424377 773.154846,908.300415 
	C776.858154,908.300415 779.967346,908.300415 783.216370,908.300415 
	C781.973694,909.652832 780.591492,908.506653 778.929749,908.735474 
z"/>
<path fill="#8D8D8D" opacity="1.000000" stroke="none" 
	d="
M144.007874,753.939331 
	C143.947128,755.250549 143.886673,756.216309 143.826218,757.182068 
	C142.762161,754.853760 142.961136,752.491943 143.666977,750.088867 
	C143.780701,751.257202 143.894440,752.425476 144.007874,753.939331 
z"/>
<path fill="#8D8D8D" opacity="1.000000" stroke="none" 
	d="
M883.216431,815.198730 
	C882.961975,811.789062 882.961975,808.717102 882.961975,805.645081 
	C883.496887,808.950745 884.614014,812.225708 883.216431,815.198730 
z"/>
<path fill="#4F4F4F" opacity="1.000000" stroke="none" 
	d="
M985.348389,564.155518 
	C985.295105,562.620422 985.238586,561.491638 985.182007,560.362854 
	C985.334534,560.355042 985.487122,560.347168 985.639648,560.339355 
	C985.639648,563.209717 985.639648,566.080017 985.639648,569.209290 
	C984.509766,567.558044 985.524597,566.023254 985.348389,564.155518 
z"/>
<path fill="#8D8D8D" opacity="1.000000" stroke="none" 
	d="
M945.982300,543.609131 
	C947.343140,545.078918 947.370483,545.087585 945.885925,549.761902 
	C945.643677,550.524475 944.968201,551.200317 946.079407,551.738647 
	C946.322449,551.856384 946.732361,551.846497 946.971313,551.718994 
	C948.077576,551.128662 947.530701,550.378235 947.048096,549.731995 
	C945.747925,547.991150 946.230774,545.933594 945.982300,543.609131 
z"/>
<path fill="#8D8D8D" opacity="1.000000" stroke="none" 
	d="
M125.525345,521.629883 
	C125.228943,519.350586 125.054131,516.945679 124.879326,514.540833 
	C126.531921,516.818970 125.797729,519.171204 125.525345,521.629883 
z"/>
<path fill="#4F4F4F" opacity="1.000000" stroke="none" 
	d="
M742.749023,871.113403 
	C742.699280,873.090271 743.477173,874.701782 742.206299,877.035461 
	C742.206299,873.124817 742.206299,870.053101 742.206299,866.598206 
	C743.382141,868.153687 742.609924,869.459839 742.749023,871.113403 
z"/>
<path fill="#4F4F4F" opacity="1.000000" stroke="none" 
	d="
M710.567322,876.968262 
	C708.065674,876.952148 705.981445,876.952148 703.897156,876.952148 
	C703.891052,876.740356 703.884949,876.528625 703.878845,876.316833 
	C706.971680,876.316833 710.064514,876.316833 713.157349,876.316833 
	C713.170044,876.448364 713.182739,876.579834 713.195435,876.711365 
	C712.458557,876.802368 711.721619,876.893372 710.567322,876.968262 
z"/>
<path fill="#8D8D8D" opacity="1.000000" stroke="none" 
	d="
M381.759094,893.980713 
	C381.978485,897.253662 381.978485,900.193115 381.978485,903.132568 
	C381.658478,903.135559 381.338440,903.138611 381.018433,903.141663 
	C381.192200,899.976807 381.365936,896.812012 381.759094,893.980713 
z"/>
<path fill="#4F4F4F" opacity="1.000000" stroke="none" 
	d="
M874.057495,720.497070 
	C873.768982,721.224243 873.638000,723.145264 873.189758,721.620117 
	C872.492493,719.247925 873.005432,716.520020 873.739197,713.933472 
	C873.837341,715.986206 873.935547,718.038940 874.057495,720.497070 
z"/>
<path fill="#8D8D8D" opacity="1.000000" stroke="none" 
	d="
M712.543579,937.330017 
	C710.459595,938.552979 708.101868,938.159241 705.696167,937.101318 
	C707.895142,937.101318 710.094116,937.101318 712.543579,937.330017 
z"/>
<path fill="#8D8D8D" opacity="1.000000" stroke="none" 
	d="
M221.899902,250.599518 
	C221.966797,248.961060 222.041550,247.674561 222.116302,246.388077 
	C223.396286,248.634781 223.124039,250.920273 222.838242,253.346466 
	C221.575821,252.748718 222.135376,251.715637 221.899902,250.599518 
z"/>
<path fill="#4F4F4F" opacity="1.000000" stroke="none" 
	d="
M131.687958,546.358276 
	C132.873901,546.356262 133.694458,546.356262 134.515030,546.356262 
	C134.516998,546.451721 134.518982,546.547241 134.520950,546.642700 
	C132.149673,546.642700 129.778412,546.642700 127.146324,546.642700 
	C128.643951,545.659851 130.021561,546.561279 131.687958,546.358276 
z"/>
<path fill="#ADADAD" opacity="1.000000" stroke="none" 
	d="
M343.504974,925.045776 
	C342.524231,924.923462 341.888641,924.812805 340.539978,924.577942 
	C343.493134,923.613342 345.756683,924.040039 348.809753,924.076538 
	C346.777130,925.361206 345.264648,924.945007 343.504974,925.045776 
z"/>
<path fill="#ADADAD" opacity="1.000000" stroke="none" 
	d="
M700.320557,195.006165 
	C698.156433,197.061584 695.365601,195.406708 692.670837,195.002792 
	C695.086365,195.002792 697.501953,195.002792 700.320557,195.006165 
z"/>
<path fill="#8D8D8D" opacity="1.000000" stroke="none" 
	d="
M732.986877,917.859741 
	C731.608337,916.020752 731.608337,916.020752 732.478210,911.255005 
	C733.543457,913.354614 733.009033,915.464722 732.986877,917.859741 
z"/>
<path fill="#4F4F4F" opacity="1.000000" stroke="none" 
	d="
M744.126465,913.213745 
	C744.122314,911.852417 744.122314,910.892700 744.122314,909.933044 
	C744.323242,909.934692 744.524170,909.936340 744.725098,909.938049 
	C744.725098,912.619690 744.725098,915.301392 744.725098,918.625671 
	C743.525574,916.645020 744.305237,915.074402 744.126465,913.213745 
z"/>
<path fill="#4F4F4F" opacity="1.000000" stroke="none" 
	d="
M947.269897,710.839844 
	C947.234924,710.327087 947.198730,710.154297 947.231812,709.995972 
	C947.311035,709.616150 947.634521,708.964722 947.699097,709.877441 
	C947.860840,712.163513 947.752502,714.468750 947.300110,716.770447 
	C947.300110,714.909119 947.300110,713.047791 947.269897,710.839844 
z"/>
<path fill="#8D8D8D" opacity="1.000000" stroke="none" 
	d="
M248.778656,274.906158 
	C249.928909,274.986725 250.726257,275.059631 252.801407,275.249298 
	C249.341095,276.465057 247.080719,275.960327 244.741913,275.221375 
	C245.969864,275.113739 247.197815,275.006104 248.778656,274.906158 
z"/>
<path fill="#4F4F4F" opacity="1.000000" stroke="none" 
	d="
M177.622253,720.164185 
	C176.795685,720.059021 176.242020,720.094116 175.865601,719.852722 
	C175.009689,719.304016 175.922470,719.056580 176.175842,719.034607 
	C178.364944,718.844849 180.592957,718.337708 182.846390,719.484985 
	C181.221237,720.581116 179.554153,720.053406 177.622253,720.164185 
z"/>
<path fill="#4F4F4F" opacity="1.000000" stroke="none" 
	d="
M915.408813,748.006165 
	C915.985107,748.331055 918.105713,748.248596 916.386292,748.769409 
	C914.042847,749.479126 911.323181,748.946411 907.660095,748.946411 
	C910.787170,747.412964 912.952026,748.398621 915.408813,748.006165 
z"/>
<path fill="#ADADAD" opacity="1.000000" stroke="none" 
	d="
M556.957397,159.818359 
	C556.959595,157.791199 556.959595,156.196777 556.959595,154.602371 
	C558.360962,157.494095 558.047058,160.412735 557.864502,163.600433 
	C556.467590,162.485718 557.152466,161.280670 556.957397,159.818359 
z"/>
<path fill="#8D8D8D" opacity="1.000000" stroke="none" 
	d="
M321.349213,898.698120 
	C322.450653,900.851685 322.279083,903.232178 321.553345,905.978210 
	C320.534515,903.431763 320.878510,901.179993 321.349213,898.698120 
z"/>
<path fill="#8D8D8D" opacity="1.000000" stroke="none" 
	d="
M775.855225,846.258118 
	C778.238342,846.088867 780.353638,846.088867 782.468933,846.088867 
	C780.188660,847.010559 777.908752,847.679626 775.855225,846.258118 
z"/>
<path fill="#8D8D8D" opacity="1.000000" stroke="none" 
	d="
M339.088470,873.022705 
	C338.598724,872.972656 338.410553,872.988037 338.282410,872.907593 
	C338.081696,872.781677 337.921631,872.591003 337.744354,872.427734 
	C340.073730,871.535645 342.384033,871.817139 345.130493,872.388123 
	C342.998749,873.421814 341.184937,872.994385 339.088470,873.022705 
z"/>
<path fill="#8D8D8D" opacity="1.000000" stroke="none" 
	d="
M270.089844,884.905029 
	C268.382904,884.887451 267.107819,884.887451 265.832764,884.887451 
	C265.831848,884.678467 265.830963,884.469482 265.830078,884.260498 
	C268.724762,884.260498 271.619446,884.260498 274.775330,884.260498 
	C273.337372,885.802246 271.846802,884.681580 270.089844,884.905029 
z"/>
<path fill="#8D8D8D" opacity="1.000000" stroke="none" 
	d="
M152.110580,371.026855 
	C154.120193,370.999786 155.807526,370.999786 157.494843,370.999786 
	C155.425674,372.304108 153.340424,372.090179 151.256134,371.838776 
	C151.111664,371.821350 150.981400,371.685974 150.844543,371.605438 
	C151.159134,371.421600 151.473709,371.237762 152.110580,371.026855 
z"/>
<path fill="#4F4F4F" opacity="1.000000" stroke="none" 
	d="
M860.025085,321.362823 
	C861.555969,321.286102 862.688782,321.205292 863.821533,321.124481 
	C863.827576,321.290802 863.833557,321.457092 863.839600,321.623413 
	C861.278503,321.623413 858.717407,321.623413 856.001831,321.623413 
	C857.232422,320.537384 858.467957,321.491608 860.025085,321.362823 
z"/>
<path fill="#4F4F4F" opacity="1.000000" stroke="none" 
	d="
M157.485031,432.326355 
	C158.483688,432.298523 159.115250,432.298523 159.746826,432.298523 
	C159.748993,432.413574 159.751175,432.528625 159.753342,432.643677 
	C157.283783,432.643677 154.814240,432.643677 152.344681,432.643677 
	C152.336929,432.547180 152.329193,432.450714 152.321442,432.354218 
	C153.920273,432.354218 155.519104,432.354218 157.485031,432.326355 
z"/>
<path fill="#4F4F4F" opacity="1.000000" stroke="none" 
	d="
M710.942810,948.821716 
	C708.374207,948.822632 706.159302,948.822632 703.944336,948.822632 
	C703.945129,948.613525 703.945862,948.404358 703.946594,948.195251 
	C706.363953,948.195251 708.781311,948.191956 711.198608,948.203247 
	C711.345337,948.203918 711.491516,948.320190 711.638062,948.382690 
	C711.524231,948.528687 711.410339,948.674744 710.942810,948.821716 
z"/>
<path fill="#4F4F4F" opacity="1.000000" stroke="none" 
	d="
M194.155609,278.174896 
	C196.016357,278.210388 197.479462,278.210388 198.942581,278.210388 
	C198.941269,278.378510 198.939972,278.546600 198.938660,278.714722 
	C196.260223,278.714722 193.581787,278.714722 190.579407,278.714722 
	C191.786774,277.682800 192.796219,278.133728 194.155609,278.174896 
z"/>
<path fill="#ADADAD" opacity="1.000000" stroke="none" 
	d="
M158.207336,358.936890 
	C155.429794,358.936218 153.045395,358.936218 150.661011,358.936218 
	C150.659180,358.658478 150.657333,358.380737 150.655487,358.102997 
	C153.333145,358.102997 156.010834,358.098877 158.688385,358.115601 
	C158.817841,358.116394 158.946167,358.300446 159.075012,358.399170 
	C158.916840,358.578644 158.758667,358.758087 158.207336,358.936890 
z"/>
<path fill="#4F4F4F" opacity="1.000000" stroke="none" 
	d="
M119.653000,394.894409 
	C119.683586,397.393555 119.683586,399.625488 119.683586,401.857452 
	C119.482941,401.850250 119.282295,401.843079 119.081650,401.835907 
	C119.261909,399.433014 119.442162,397.030121 119.653000,394.894409 
z"/>
<path fill="#8D8D8D" opacity="1.000000" stroke="none" 
	d="
M822.019958,810.818604 
	C821.929626,811.907288 821.840515,812.680176 821.670349,814.156433 
	C820.763062,811.519104 820.728210,809.615234 821.739502,806.867249 
	C821.876282,808.632874 821.948730,809.567810 822.019958,810.818604 
z"/>
<path fill="#4F4F4F" opacity="1.000000" stroke="none" 
	d="
M775.007202,836.312439 
	C776.910461,836.327454 778.488342,836.327454 780.066223,836.327454 
	C780.066345,836.454468 780.066467,836.581482 780.066528,836.708496 
	C778.147156,836.708496 776.227722,836.710815 774.308289,836.704163 
	C774.153870,836.703613 773.999756,836.641296 773.845459,836.607666 
	C774.124268,836.504272 774.403015,836.400818 775.007202,836.312439 
z"/>
<path fill="#8D8D8D" opacity="1.000000" stroke="none" 
	d="
M723.260742,170.423569 
	C723.237793,169.385376 723.237793,168.747787 723.237793,168.110199 
	C723.383850,168.106079 723.529907,168.101959 723.675964,168.097839 
	C723.675964,170.578857 723.675964,173.059875 723.675964,175.914932 
	C722.371582,174.016418 723.542725,172.389969 723.260742,170.423569 
z"/>
<path fill="#8D8D8D" opacity="1.000000" stroke="none" 
	d="
M247.986176,850.324219 
	C248.055832,849.359985 248.124084,848.707764 248.192352,848.055542 
	C249.041946,849.863770 249.251541,851.676636 248.259094,854.757812 
	C248.113541,852.570801 248.049164,851.603516 247.986176,850.324219 
z"/>
<path fill="#4F4F4F" opacity="1.000000" stroke="none" 
	d="
M885.166260,716.438293 
	C885.054199,718.044312 885.511780,719.397522 884.515198,720.654175 
	C883.325256,718.817627 883.880066,716.914795 884.014771,715.067505 
	C884.033813,714.806274 884.347351,714.566589 884.524536,714.316956 
	C884.734070,714.908386 884.943604,715.499756 885.166260,716.438293 
z"/>
<path fill="#8D8D8D" opacity="1.000000" stroke="none" 
	d="
M124.990341,664.995300 
	C124.934715,665.467529 124.954659,665.666565 124.866379,665.785095 
	C124.742645,665.951294 124.538383,666.057495 124.368546,666.189331 
	C123.702255,664.257568 123.799667,662.338013 124.411964,660.281677 
	C125.386856,661.750000 124.922234,663.254761 124.990341,664.995300 
z"/>
<path fill="#8D8D8D" opacity="1.000000" stroke="none" 
	d="
M280.916718,187.357513 
	C281.089691,185.896652 281.089691,184.783051 281.089691,182.863846 
	C282.516327,185.377319 281.618439,187.217224 281.641266,188.987366 
	C281.651642,189.790878 280.886505,189.365555 280.576477,189.173065 
	C279.704071,188.631485 280.208923,188.143997 280.916718,187.357513 
z"/>
<path fill="#8D8D8D" opacity="1.000000" stroke="none" 
	d="
M906.800842,689.634888 
	C908.668335,688.653076 910.749695,688.735168 913.089294,689.472046 
	C910.934998,690.388184 908.978333,690.082397 906.800842,689.634888 
z"/>
<path fill="#4F4F4F" opacity="1.000000" stroke="none" 
	d="
M180.147385,706.018433 
	C178.541107,707.282715 178.541107,707.282715 173.607590,706.561890 
	C175.694168,705.310913 177.801559,706.280762 180.147385,706.018433 
z"/>
<path fill="#8D8D8D" opacity="1.000000" stroke="none" 
	d="
M275.083740,247.605682 
	C275.412262,244.903793 277.012573,246.460220 278.279022,246.427567 
	C275.398529,246.356079 276.053772,248.640488 275.592285,250.366669 
	C275.373779,249.889893 275.204468,249.664062 275.172333,249.420151 
	C275.108002,248.931915 275.118774,248.433762 275.083740,247.605682 
z"/>
<path fill="#8D8D8D" opacity="1.000000" stroke="none" 
	d="
M274.510010,874.093872 
	C273.276611,875.912842 271.489960,874.670044 269.185272,874.908081 
	C271.181976,873.590332 272.744232,874.124329 274.510010,874.093872 
z"/>
<path fill="#ADADAD" opacity="1.000000" stroke="none" 
	d="
M192.947083,397.240997 
	C191.062561,395.515808 192.614197,393.132416 192.948654,390.867645 
	C192.948654,392.865234 192.948654,394.862793 192.947083,397.240997 
z"/>
<path fill="#8D8D8D" opacity="1.000000" stroke="none" 
	d="
M936.329834,710.416260 
	C937.521790,712.354980 937.178467,714.573853 936.099915,716.848877 
	C936.099915,714.790100 936.099915,712.731262 936.329834,710.416260 
z"/>
<path fill="#ADADAD" opacity="1.000000" stroke="none" 
	d="
M290.001648,195.395691 
	C289.959198,193.579697 289.959198,192.111755 289.959198,189.638962 
	C291.439880,192.235504 290.994476,193.975906 290.949036,195.668274 
	C290.945435,195.802612 290.746552,196.056244 290.688263,196.042542 
	C290.462585,195.989502 290.257111,195.850647 290.001648,195.395691 
z"/>
<path fill="#4F4F4F" opacity="1.000000" stroke="none" 
	d="
M529.499756,164.169250 
	C530.290039,164.295242 530.780334,164.440475 531.265198,164.424561 
	C531.901062,164.403656 531.918884,164.514816 531.319885,164.521530 
	C529.836121,164.538193 528.311035,165.666214 526.331970,164.116791 
	C527.641113,164.116791 528.419250,164.116791 529.499756,164.169250 
z"/>
<path fill="#4F4F4F" opacity="1.000000" stroke="none" 
	d="
M866.480957,260.758759 
	C864.664551,261.191650 863.088501,261.408051 860.328430,260.300415 
	C863.242737,259.832001 864.950073,259.364960 866.480957,260.758759 
z"/>
<path fill="#4F4F4F" opacity="1.000000" stroke="none" 
	d="
M945.700195,560.630127 
	C946.318054,562.906372 946.071045,564.867126 945.309204,568.269775 
	C945.117798,565.126770 945.013245,563.410278 945.003906,561.302063 
	C945.232544,560.723816 945.365967,560.537292 945.700195,560.630127 
z"/>
<path fill="#4F4F4F" opacity="1.000000" stroke="none" 
	d="
M127.941376,491.835327 
	C127.882294,492.274994 127.850403,492.435791 127.828850,492.597961 
	C127.757698,493.133270 127.379028,493.226013 127.275261,492.747925 
	C126.953148,491.263794 126.784142,489.746429 126.512062,487.954346 
	C128.780640,488.926636 127.829269,490.397644 127.941376,491.835327 
z"/>
<path fill="#8D8D8D" opacity="1.000000" stroke="none" 
	d="
M798.390015,249.918930 
	C800.067505,248.968231 800.067505,248.968231 803.069458,249.530792 
	C801.646973,250.392990 800.148193,249.976913 798.390015,249.918930 
z"/>
<path fill="#4F4F4F" opacity="1.000000" stroke="none" 
	d="
M106.008667,509.930908 
	C105.955292,511.335602 106.380341,512.521973 105.523376,513.602417 
	C104.518906,512.260559 105.026733,510.813568 105.074142,509.423584 
	C105.079277,509.273010 105.141945,509.049469 105.250038,508.989319 
	C106.069542,508.533264 105.776222,509.374146 106.008667,509.930908 
z"/>
<path fill="#8D8D8D" opacity="1.000000" stroke="none" 
	d="
M488.959991,935.557861 
	C488.937531,936.828003 489.499786,937.833435 488.410431,938.804138 
	C487.339050,936.735840 488.367401,934.795898 488.453979,932.879272 
	C488.608429,933.653015 488.764252,934.426514 488.959991,935.557861 
z"/>
<path fill="#4F4F4F" opacity="1.000000" stroke="none" 
	d="
M533.189331,153.960876 
	C534.176941,152.025223 535.825317,153.344574 537.964844,152.934052 
	C536.188721,154.504532 534.773987,153.914169 533.189331,153.960876 
z"/>
<path fill="#8D8D8D" opacity="1.000000" stroke="none" 
	d="
M159.981232,311.386475 
	C160.013062,310.669830 159.983582,310.316467 160.122833,310.051880 
	C160.542892,309.253754 160.954117,309.966705 160.961609,310.219788 
	C161.022568,312.281433 160.995895,314.345642 160.995895,317.098938 
	C159.398087,314.977386 160.333176,313.308929 159.981232,311.386475 
z"/>
<path fill="#8D8D8D" opacity="1.000000" stroke="none" 
	d="
M766.108704,228.136887 
	C766.079163,227.101730 766.079163,226.469009 766.079163,225.836304 
	C766.258362,225.826294 766.437622,225.816284 766.616821,225.806274 
	C766.616821,227.949631 766.616821,230.092972 766.616821,232.393173 
	C765.558044,231.104675 766.385803,229.763565 766.108704,228.136887 
z"/>
<path fill="#8D8D8D" opacity="1.000000" stroke="none" 
	d="
M503.572906,954.582764 
	C503.102661,953.228760 502.350861,951.698364 503.533112,950.112122 
	C504.586365,951.591003 503.860474,953.020996 503.572906,954.582764 
z"/>
<path fill="#8D8D8D" opacity="1.000000" stroke="none" 
	d="
M509.022278,998.252930 
	C508.862122,999.892578 508.682678,1001.173035 508.451202,1002.824402 
	C508.277435,1000.938965 508.129974,999.419739 508.012848,997.898193 
	C508.004547,997.790222 508.245605,997.550842 508.324341,997.569397 
	C508.562775,997.625488 508.778442,997.778381 509.022278,998.252930 
z"/>
<path fill="#ADADAD" opacity="1.000000" stroke="none" 
	d="
M236.009216,851.447632 
	C233.952484,850.343384 235.434021,848.423462 234.738541,845.729980 
	C236.615906,847.993652 235.704422,849.618347 236.009216,851.447632 
z"/>
<path fill="#8D8D8D" opacity="1.000000" stroke="none" 
	d="
M307.001648,842.872681 
	C306.986847,841.728577 306.687317,840.909241 307.621033,840.212524 
	C308.650360,841.955444 307.246124,843.937866 309.081390,845.963013 
	C306.576752,845.432129 307.239685,844.128662 307.001648,842.872681 
z"/>
<path fill="#ADADAD" opacity="1.000000" stroke="none" 
	d="
M309.996277,899.585938 
	C310.012695,901.408508 310.012695,902.843323 310.012695,904.278076 
	C309.695953,904.296875 309.379211,904.315674 309.062469,904.334473 
	C309.062469,902.597534 309.055939,900.860596 309.076141,899.123901 
	C309.077606,898.998901 309.334595,898.754578 309.370361,898.772278 
	C309.589905,898.881165 309.779968,899.049622 309.996277,899.585938 
z"/>
<path fill="#8D8D8D" opacity="1.000000" stroke="none" 
	d="
M670.708740,126.078911 
	C669.630615,124.521126 670.061035,122.635284 670.952881,120.673271 
	C670.952881,122.380043 670.952881,124.086807 670.708740,126.078911 
z"/>
<path fill="#4F4F4F" opacity="1.000000" stroke="none" 
	d="
M846.702271,836.008179 
	C847.749390,836.020569 848.520447,836.056152 849.405457,836.097046 
	C848.507019,837.677307 847.265320,836.863342 846.208069,836.910767 
	C846.068665,836.917053 845.849609,836.843689 845.793213,836.739258 
	C845.371155,835.957397 846.158020,836.221375 846.702271,836.008179 
z"/>
<path fill="#4F4F4F" opacity="1.000000" stroke="none" 
	d="
M805.026978,872.222168 
	C804.917908,873.111572 804.796021,873.718811 804.674133,874.326111 
	C803.470703,873.442078 803.789673,872.116394 804.171326,871.157410 
	C804.709534,869.804871 804.771912,871.149902 804.957581,871.471619 
	C805.029846,871.596985 804.998352,871.782166 805.026978,872.222168 
z"/>
<path fill="#4F4F4F" opacity="1.000000" stroke="none" 
	d="
M273.488037,823.986450 
	C274.552765,824.015015 275.332153,824.065308 276.229065,824.123108 
	C275.244904,825.591553 274.010559,824.933167 272.906097,824.916931 
	C272.766235,824.914917 272.546387,824.823608 272.502350,824.716492 
	C272.194794,823.968506 272.897461,824.178650 273.488037,823.986450 
z"/>
<path fill="#4F4F4F" opacity="1.000000" stroke="none" 
	d="
M700.601318,110.748405 
	C698.954773,111.071709 697.491455,111.600334 696.087280,110.374535 
	C697.795105,109.750916 699.336487,109.390602 700.601318,110.748405 
z"/>
<path fill="#ADADAD" opacity="1.000000" stroke="none" 
	d="
M233.020050,314.160156 
	C233.052002,313.137573 233.083740,312.501953 233.115479,311.866364 
	C233.297104,311.865753 233.478714,311.865143 233.660339,311.864532 
	C233.660339,313.697052 233.660339,315.529572 233.660339,317.601410 
	C232.634247,316.536926 233.145432,315.492889 233.020050,314.160156 
z"/>
<path fill="#ADADAD" opacity="1.000000" stroke="none" 
	d="
M286.104065,250.277710 
	C286.141449,249.275070 286.179840,248.639893 286.218231,248.004700 
	C286.375916,248.006943 286.533569,248.009186 286.691223,248.011429 
	C286.691223,249.809845 286.691223,251.608261 286.691223,253.583389 
	C285.617340,252.605530 286.193420,251.576050 286.104065,250.277710 
z"/>
<path fill="#8D8D8D" opacity="1.000000" stroke="none" 
	d="
M491.011047,955.022827 
	C490.846680,955.768555 490.814117,957.033264 490.268738,956.194702 
	C489.386505,954.838257 490.333923,953.149963 490.530823,951.729858 
	C490.670013,952.625854 490.828857,953.648438 491.011047,955.022827 
z"/>
<path fill="#8D8D8D" opacity="1.000000" stroke="none" 
	d="
M429.180725,957.010437 
	C430.717987,958.002136 429.805206,959.407837 429.955200,961.217957 
	C428.350372,959.707642 429.174866,958.428955 429.180725,957.010437 
z"/>
<path fill="#8D8D8D" opacity="1.000000" stroke="none" 
	d="
M502.761810,941.548584 
	C502.922760,943.104248 502.830048,944.413574 502.654816,946.888428 
	C502.182770,944.243835 501.307007,942.783875 502.761810,941.548584 
z"/>
<path fill="#4F4F4F" opacity="1.000000" stroke="none" 
	d="
M135.319641,508.387299 
	C135.139511,506.528168 135.139511,504.934326 135.139511,503.340454 
	C135.348419,503.320221 135.557312,503.299988 135.766220,503.279755 
	C135.862656,504.648682 135.959076,506.017578 135.958008,507.754425 
	C135.740280,508.299072 135.620041,508.475830 135.319641,508.387299 
z"/>
<path fill="#4F4F4F" opacity="1.000000" stroke="none" 
	d="
M156.679657,505.992004 
	C156.792740,507.241547 156.792740,508.306458 156.792740,509.371399 
	C156.097183,508.155884 155.733017,506.963989 156.679657,505.992004 
z"/>
<path fill="#8D8D8D" opacity="1.000000" stroke="none" 
	d="
M501.552002,936.265991 
	C501.243469,935.129822 501.088135,933.865112 500.853485,931.954651 
	C502.706848,933.580811 501.674500,934.933350 501.552002,936.265991 
z"/>
<path fill="#8D8D8D" opacity="1.000000" stroke="none" 
	d="
M442.768127,961.493774 
	C442.958466,963.004456 442.886047,964.268372 442.813660,965.532349 
	C442.226227,964.112061 441.263275,962.720154 442.768127,961.493774 
z"/>
<path fill="#8D8D8D" opacity="1.000000" stroke="none" 
	d="
M430.882507,966.413086 
	C430.832947,967.716370 431.661133,968.888000 430.419373,969.761719 
	C429.434296,968.564819 430.153931,967.285950 430.178314,966.056702 
	C430.181427,965.898865 430.192352,965.657898 430.288483,965.598083 
	C431.122955,965.078613 430.578308,966.026245 430.882507,966.413086 
z"/>
<path fill="#8D8D8D" opacity="1.000000" stroke="none" 
	d="
M426.896118,930.409058 
	C426.831757,931.720459 427.686951,932.909180 426.410187,933.779663 
	C425.427429,932.564209 426.143677,931.271362 426.169312,930.027466 
	C426.172607,929.867920 426.185638,929.623108 426.282684,929.564514 
	C427.134247,929.050720 426.579681,930.014709 426.896118,930.409058 
z"/>
<path fill="#8D8D8D" opacity="1.000000" stroke="none" 
	d="
M492.073547,972.954895 
	C492.167206,972.343933 492.218323,972.019470 492.286316,971.698608 
	C492.317413,971.551880 492.381866,971.412231 492.431213,971.269348 
	C492.671295,972.655640 492.911316,974.041870 493.222321,975.838074 
	C491.398468,975.061218 492.206146,974.002563 492.073547,972.954895 
z"/>
<path fill="#ADADAD" opacity="1.000000" stroke="none" 
	d="
M990.242554,465.343628 
	C990.105225,463.701141 990.211548,462.320984 990.317871,460.940796 
	C990.677124,462.511017 991.704346,464.073944 990.242554,465.343628 
z"/>
<path fill="#4F4F4F" opacity="1.000000" stroke="none" 
	d="
M954.600464,565.770142 
	C954.161377,564.537354 954.161377,562.936462 954.161377,561.335632 
	C954.363098,561.316101 954.564758,561.296509 954.766479,561.276978 
	C954.857544,562.652039 954.948608,564.027100 954.600464,565.770142 
z"/>
<path fill="#4F4F4F" opacity="1.000000" stroke="none" 
	d="
M244.381775,214.964386 
	C245.841782,215.018967 246.939087,215.072510 248.811752,215.163895 
	C246.460541,216.335068 244.806412,216.099640 243.153076,215.805267 
	C243.014511,215.780594 242.901657,215.611404 242.776871,215.509369 
	C243.190933,215.327347 243.604996,215.145355 244.381775,214.964386 
z"/>
<path fill="#8D8D8D" opacity="1.000000" stroke="none" 
	d="
M505.229706,973.051575 
	C505.159607,971.702515 504.552582,970.573303 505.472351,969.163940 
	C506.432526,970.432739 505.913483,971.639221 505.809326,972.764954 
	C505.781067,973.070435 505.575653,973.359558 505.451447,973.656128 
	C505.393890,973.535095 505.336334,973.414124 505.229706,973.051575 
z"/>
<path fill="#8D8D8D" opacity="1.000000" stroke="none" 
	d="
M507.066315,979.764404 
	C506.957642,980.906494 506.864380,981.709778 506.690308,983.208557 
	C505.917358,981.301697 505.798126,979.988647 506.120667,978.616882 
	C506.151886,978.484253 506.342621,978.389099 506.459320,978.276550 
	C506.666779,978.659607 506.874237,979.042603 507.066315,979.764404 
z"/>
<path fill="#8D8D8D" opacity="1.000000" stroke="none" 
	d="
M500.300842,926.597290 
	C500.148163,925.012756 499.441864,923.627686 500.529388,921.928772 
	C501.366699,923.812622 501.228271,925.317078 500.300842,926.597290 
z"/>
<path fill="#8D8D8D" opacity="1.000000" stroke="none" 
	d="
M799.008667,194.399719 
	C799.179016,195.250732 799.403992,195.795593 799.543152,196.361511 
	C799.556763,196.417023 798.870728,196.772598 798.800354,196.701385 
	C797.827515,195.717056 797.857605,194.539337 798.282776,193.323914 
	C798.295044,193.288956 798.604187,193.282059 798.650391,193.348572 
	C798.809814,193.578140 798.914001,193.846100 799.008667,194.399719 
z"/>
<path fill="#8D8D8D" opacity="1.000000" stroke="none" 
	d="
M425.024109,921.999268 
	C425.328247,921.332886 425.508820,920.336121 425.559814,920.528687 
	C425.910675,921.853516 425.925903,923.267273 426.066681,924.850220 
	C424.293945,924.185181 425.168549,923.095947 425.024109,921.999268 
z"/>
<path fill="#8D8D8D" opacity="1.000000" stroke="none" 
	d="
M436.952972,919.398682 
	C436.955872,918.572876 436.836578,918.002258 437.048828,917.611877 
	C437.384308,916.994690 438.012634,917.370728 438.015076,917.790527 
	C438.022675,919.102478 437.835907,920.415527 437.281647,921.695374 
	C437.180939,921.041809 437.080231,920.388184 436.952972,919.398682 
z"/>
<path fill="#8D8D8D" opacity="1.000000" stroke="none" 
	d="
M498.951721,914.122009 
	C501.838104,914.555359 498.584656,916.454041 499.866058,917.527283 
	C498.739258,916.695984 499.117279,915.515442 498.951721,914.122009 
z"/>
<path fill="#8D8D8D" opacity="1.000000" stroke="none" 
	d="
M565.113403,911.295044 
	C567.008606,911.140259 568.591858,911.140259 570.175110,911.140259 
	C570.182922,911.367615 570.190674,911.595032 570.198425,911.822388 
	C568.399414,911.698181 566.600464,911.573975 565.113403,911.295044 
z"/>
<path fill="#8D8D8D" opacity="1.000000" stroke="none" 
	d="
M507.773193,987.461670 
	C507.956726,989.120605 507.871277,990.529724 507.700012,993.354675 
	C507.124084,990.356140 506.250671,988.793945 507.773193,987.461670 
z"/>
<path fill="#8D8D8D" opacity="1.000000" stroke="none" 
	d="
M566.117065,929.889282 
	C565.452332,929.900085 565.134277,929.906311 564.849365,929.812256 
	C564.349976,929.647400 564.341309,929.253296 564.825562,929.223694 
	C566.220886,929.138489 567.624756,929.193665 569.040833,929.671509 
	C568.186768,929.727539 567.332764,929.783569 566.117065,929.889282 
z"/>
<path fill="#8D8D8D" opacity="1.000000" stroke="none" 
	d="
M438.987671,937.273926 
	C438.989441,936.493469 438.838013,935.816650 439.085266,935.604553 
	C439.952118,934.860901 440.073639,935.734009 440.040375,936.272339 
	C439.982819,937.203125 439.750671,938.123230 439.591766,939.047791 
	C439.400299,938.562073 439.208832,938.076416 438.987671,937.273926 
z"/>
<path fill="#4F4F4F" opacity="1.000000" stroke="none" 
	d="
M779.167969,896.116455 
	C780.158325,896.109985 780.916138,896.158875 782.024780,896.230347 
	C780.818909,897.236755 779.873779,896.990112 778.945435,896.805359 
	C778.815552,896.779480 778.716980,896.596313 778.603882,896.485962 
	C778.714417,896.381226 778.824951,896.276489 779.167969,896.116455 
z"/>
<path fill="#8D8D8D" opacity="1.000000" stroke="none" 
	d="
M509.843353,1010.264038 
	C508.497772,1009.321411 508.875702,1007.874939 509.322327,1006.260925 
	C510.659790,1007.450500 509.768463,1008.742737 509.843353,1010.264038 
z"/>
<path fill="#8D8D8D" opacity="1.000000" stroke="none" 
	d="
M813.267456,878.434753 
	C814.224792,879.201355 813.952637,880.357971 813.741882,881.866943 
	C812.587280,880.730469 813.254883,879.657166 813.267456,878.434753 
z"/>
<path fill="#8D8D8D" opacity="1.000000" stroke="none" 
	d="
M375.309387,183.914093 
	C374.537170,183.766449 373.403656,183.596817 373.914642,183.406525 
	C375.284698,182.896347 376.912201,183.077530 378.742340,182.965424 
	C377.745850,184.661377 376.586426,183.605942 375.309387,183.914093 
z"/>
<path fill="#4F4F4F" opacity="1.000000" stroke="none" 
	d="
M377.392975,201.082550 
	C376.737854,202.866867 375.212402,201.419266 373.622559,202.039307 
	C374.796265,200.509644 376.051025,201.439468 377.392975,201.082550 
z"/>
<path fill="#ADADAD" opacity="1.000000" stroke="none" 
	d="
M753.158875,227.949417 
	C752.496704,227.918808 752.187744,227.889160 751.895996,227.801880 
	C751.758057,227.760620 751.653137,227.609024 751.533264,227.507416 
	C753.023376,226.370392 754.556580,227.541626 756.593323,226.819382 
	C755.358337,228.306229 754.365845,227.748230 753.158875,227.949417 
z"/>
<path fill="#ADADAD" opacity="1.000000" stroke="none" 
	d="
M211.034729,250.988464 
	C211.002625,251.990494 210.970428,252.602707 210.938232,253.214905 
	C210.746567,253.225311 210.554916,253.235718 210.363251,253.246124 
	C210.363251,251.678482 210.363251,250.110840 210.363251,248.478195 
	C211.302277,249.029800 210.960770,249.873322 211.034729,250.988464 
z"/>
<path fill="#4F4F4F" opacity="1.000000" stroke="none" 
	d="
M130.136658,396.845764 
	C130.157410,395.974060 130.228973,395.327026 130.300552,394.679962 
	C131.413391,394.984955 130.746750,395.890717 130.907562,396.514618 
	C130.944641,396.658508 130.874619,396.844818 130.814713,396.996063 
	C130.625885,397.472809 130.408188,397.494171 130.136658,396.845764 
z"/>
<path fill="#ADADAD" opacity="1.000000" stroke="none" 
	d="
M126.337547,504.239807 
	C126.172913,502.073944 126.172913,500.297577 126.172913,498.086731 
	C127.670242,499.911926 126.696022,501.532410 126.852051,503.438599 
	C126.718895,504.108765 126.610542,504.369019 126.337547,504.239807 
z"/>
<path fill="#4F4F4F" opacity="1.000000" stroke="none" 
	d="
M126.072220,504.196289 
	C126.172913,503.850311 126.500061,503.843567 126.663651,503.846069 
	C127.199677,505.285522 127.146004,506.696594 126.576309,508.177734 
	C125.715584,507.009094 126.040337,505.742340 126.072220,504.196289 
z"/>
<path fill="#ADADAD" opacity="1.000000" stroke="none" 
	d="
M93.952705,512.046387 
	C93.992310,511.039124 94.031380,510.423218 94.070450,509.807312 
	C95.140274,511.336517 95.230515,512.907410 94.696388,514.614929 
	C93.689529,514.020752 94.017715,513.172974 93.952705,512.046387 
z"/>
<path fill="#ADADAD" opacity="1.000000" stroke="none" 
	d="
M954.139160,566.548218 
	C954.161377,566.138184 954.500000,566.128418 954.669312,566.133911 
	C954.745300,567.908997 955.474976,569.714844 954.610657,571.633545 
	C953.335327,570.073303 954.304321,568.452942 954.139160,566.548218 
z"/>
<path fill="#4F4F4F" opacity="1.000000" stroke="none" 
	d="
M369.593445,899.208740 
	C369.333771,898.454041 369.234985,897.571594 369.094452,896.316101 
	C370.244751,897.375244 369.844940,898.250854 369.593445,899.208740 
z"/>
<path fill="#4F4F4F" opacity="1.000000" stroke="none" 
	d="
M871.087524,813.129272 
	C871.074524,812.106567 871.110840,811.341003 871.162292,810.256409 
	C872.366394,811.426636 871.958130,812.465576 871.786560,813.460938 
	C871.767517,813.571472 871.540955,813.746948 871.460571,813.723206 
	C871.330811,813.684875 871.242615,813.505920 871.087524,813.129272 
z"/>
<path fill="#4F4F4F" opacity="1.000000" stroke="none" 
	d="
M846.494019,786.375732 
	C845.576294,787.163086 844.519714,787.263306 843.431885,786.479553 
	C844.384644,785.742920 845.366333,786.020447 846.494019,786.375732 
z"/>
<path fill="#4F4F4F" opacity="1.000000" stroke="none" 
	d="
M174.709503,660.609009 
	C174.864349,661.745056 174.864349,662.681458 174.864349,664.661377 
	C173.883423,662.563110 173.619034,661.499268 174.709503,660.609009 
z"/>
<path fill="#8D8D8D" opacity="1.000000" stroke="none" 
	d="
M168.309189,583.567383 
	C168.202469,582.307312 167.390747,581.169495 168.575485,580.161743 
	C169.345718,581.450500 169.156891,582.623291 168.309189,583.567383 
z"/>
<path fill="#ADADAD" opacity="1.000000" stroke="none" 
	d="
M181.043549,396.978790 
	C180.990845,398.107574 180.909210,398.893188 180.784195,400.096191 
	C179.806366,398.622498 179.631561,397.527008 180.304718,396.363007 
	C180.340927,396.300415 180.554352,396.280762 180.646454,396.323975 
	C180.786972,396.389862 180.893600,396.528076 181.043549,396.978790 
z"/>
<path fill="#8D8D8D" opacity="1.000000" stroke="none" 
	d="
M473.778625,73.858871 
	C473.168732,73.826637 472.890442,73.743874 472.612122,73.661118 
	C473.565308,72.593513 474.655121,73.291855 475.700989,73.422089 
	C475.612335,73.683174 475.486023,74.176682 475.440826,74.169365 
	C474.989624,74.096275 474.551819,73.940666 473.778625,73.858871 
z"/>
<path fill="#8D8D8D" opacity="1.000000" stroke="none" 
	d="
M598.825195,168.214844 
	C598.227295,169.069794 597.332642,169.397354 596.317566,168.523071 
	C596.952942,167.654724 597.794067,168.099258 598.825195,168.214844 
z"/>
<path fill="#ADADAD" opacity="1.000000" stroke="none" 
	d="
M729.304565,203.877792 
	C730.260071,204.781998 730.022949,205.981293 729.750549,207.256195 
	C728.393066,206.390320 729.260864,205.151367 729.304565,203.877792 
z"/>
<path fill="#4F4F4F" opacity="1.000000" stroke="none" 
	d="
M244.520645,226.591858 
	C245.018005,226.375320 245.635193,226.298904 246.254761,226.262039 
	C246.330093,226.257553 246.418106,226.465851 246.500259,226.575531 
	C245.880569,226.631668 245.260895,226.687820 244.520645,226.591858 
z"/>
<path fill="#4F4F4F" opacity="1.000000" stroke="none" 
	d="
M777.959351,231.710480 
	C778.092773,231.020996 778.246155,230.593750 778.399536,230.166519 
	C779.474487,230.802139 779.030701,231.696365 778.786133,232.543365 
	C778.757874,232.641144 778.560608,232.690140 778.441650,232.761780 
	C778.287537,232.498764 778.133423,232.235733 777.959351,231.710480 
z"/>
<path fill="#ADADAD" opacity="1.000000" stroke="none" 
	d="
M150.331818,685.875366 
	C150.962219,685.523254 151.503036,684.954468 151.551788,684.993958 
	C152.188858,685.509460 152.013016,686.311707 151.516418,686.595398 
	C150.852463,686.974731 149.872986,687.706360 149.289459,686.359985 
	C149.264343,686.302063 149.434143,686.115173 149.548325,686.052856 
	C149.683395,685.979126 149.856735,685.975464 150.331818,685.875366 
z"/>
<path fill="#4F4F4F" opacity="1.000000" stroke="none" 
	d="
M197.282959,340.935608 
	C196.788315,340.732758 195.711884,340.849915 196.584717,340.235992 
	C197.166824,339.826569 198.143112,339.820709 198.831360,340.481140 
	C198.397598,340.635681 197.963821,340.790222 197.282959,340.935608 
z"/>
<path fill="#8D8D8D" opacity="1.000000" stroke="none" 
	d="
M991.080933,472.589905 
	C990.938782,473.530518 990.809998,474.134399 990.569336,475.262573 
	C990.192505,473.562256 989.040405,472.348633 990.805298,471.386047 
	C990.901611,471.675079 990.997925,471.964142 991.080933,472.589905 
z"/>
<path fill="#4F4F4F" opacity="1.000000" stroke="none" 
	d="
M102.755554,626.886108 
	C103.010277,627.913757 103.108597,628.723083 103.148285,629.535278 
	C103.150146,629.573425 102.456879,629.769409 102.379982,629.668640 
	C101.588120,628.630798 101.639809,627.607788 102.755554,626.886108 
z"/>
<path fill="#4F4F4F" opacity="1.000000" stroke="none" 
	d="
M943.693237,592.624023 
	C944.180481,594.190491 944.333862,595.471008 943.586853,596.734802 
	C942.558228,595.816711 943.011169,594.645691 943.015503,593.244873 
	C943.242004,592.715881 943.370789,592.532776 943.693237,592.624023 
z"/>
<path fill="#ADADAD" opacity="1.000000" stroke="none" 
	d="
M135.118469,508.514832 
	C135.139511,508.122040 135.500031,508.079620 135.680267,508.100983 
	C135.860519,509.573151 135.860519,511.023926 135.860519,512.791809 
	C134.381546,511.421448 135.279648,510.089081 135.118469,508.514832 
z"/>
<path fill="#ADADAD" opacity="1.000000" stroke="none" 
	d="
M943.905396,592.502075 
	C943.886902,592.898376 943.500061,592.983276 943.306641,592.941101 
	C943.113159,591.502625 943.113159,590.106323 943.113159,588.710083 
	C943.383423,588.678772 943.653687,588.647461 943.923950,588.616211 
	C943.923950,589.779419 943.923950,590.942627 943.905396,592.502075 
z"/>
<path fill="#ADADAD" opacity="1.000000" stroke="none" 
	d="
M951.364685,528.249268 
	C950.277893,529.465759 948.896606,529.212402 947.385254,528.626709 
	C948.537659,527.389587 949.886597,528.129944 951.364685,528.249268 
z"/>
<path fill="#ADADAD" opacity="1.000000" stroke="none" 
	d="
M945.918762,560.510376 
	C945.900940,560.909424 945.500122,561.019043 945.299622,560.964722 
	C945.099121,559.503113 945.099121,558.095947 945.099121,556.688721 
	C945.378296,556.656921 945.657410,556.625122 945.936584,556.593262 
	C945.936584,557.765991 945.936584,558.938660 945.918762,560.510376 
z"/>
<path fill="#ADADAD" opacity="1.000000" stroke="none" 
	d="
M576.733459,918.851013 
	C576.935547,920.182983 576.935547,921.239502 576.935547,923.505005 
	C575.917419,921.056763 575.721924,919.819397 576.733459,918.851013 
z"/>
<path fill="#8D8D8D" opacity="1.000000" stroke="none" 
	d="
M558.966614,921.569458 
	C556.674805,921.173157 558.629150,919.740784 558.178284,918.454834 
	C559.396545,919.342163 558.773254,920.368713 558.966614,921.569458 
z"/>
<path fill="#8D8D8D" opacity="1.000000" stroke="none" 
	d="
M944.646118,541.501953 
	C944.638672,541.453491 944.653625,541.550415 944.646118,541.501953 
z"/>
<path fill="#8D8D8D" opacity="1.000000" stroke="none" 
	d="
M955.307678,587.526733 
	C955.276306,587.477661 955.339050,587.575806 955.307678,587.526733 
z"/>
</svg>