<?xml version="1.0" standalone="no"?>
<!DOCTYPE svg PUBLIC "-//W3C//DTD SVG 20010904//EN"
 "http://www.w3.org/TR/2001/REC-SVG-20010904/DTD/svg10.dtd">
<svg version="1.0" xmlns="http://www.w3.org/2000/svg"
 width="1080.000000pt" height="1080.000000pt" viewBox="0 0 1080.000000 1080.000000"
 preserveAspectRatio="xMidYMid meet">

<g transform="translate(0.000000,1080.000000) scale(0.100000,-0.100000)"
fill="#000000" stroke="none">
<path d="M6016 9424 c-3 -26 -6 -64 -6 -85 0 -21 -4 -49 -10 -64 -9 -25 -31
-170 -51 -340 -5 -44 -14 -100 -19 -124 -6 -24 -13 -69 -17 -101 l-6 -58 43
-7 c23 -4 45 -3 50 1 9 10 40 196 40 239 0 16 7 63 15 105 17 91 42 259 55
371 11 96 5 109 -50 109 -37 0 -37 -1 -44 -46z"/>
<path d="M4930 9430 c-8 -4 -37 -11 -65 -14 -27 -4 -70 -13 -95 -21 -25 -7
-70 -18 -100 -24 -30 -6 -86 -18 -125 -25 -88 -18 -125 -32 -125 -49 0 -7 9
-47 19 -88 10 -41 22 -91 26 -113 3 -21 10 -46 15 -55 4 -9 13 -43 18 -76 5
-33 20 -100 31 -150 12 -49 26 -114 31 -144 5 -29 14 -67 21 -83 11 -27 14
-29 53 -23 53 9 58 14 46 55 -6 19 -19 76 -30 125 -10 50 -22 100 -25 112 -6
17 -1 25 24 37 16 9 42 16 57 16 15 0 53 7 83 15 31 8 82 19 113 25 75 15 102
36 92 74 -7 28 -7 28 -66 22 -33 -4 -72 -12 -86 -17 -35 -14 -168 -40 -211
-42 -35 -2 -35 -2 -47 58 -21 102 -33 159 -39 182 -4 18 2 23 48 36 28 9 77
20 107 26 107 20 185 38 223 51 34 13 37 17 37 51 0 41 -8 51 -30 39z"/>
<path d="M6371 9383 c-6 -15 -17 -59 -25 -98 -22 -105 -36 -165 -52 -219 -8
-26 -14 -58 -14 -69 0 -12 -6 -39 -14 -62 -8 -22 -24 -85 -36 -140 -12 -55
-27 -117 -33 -138 -12 -43 -8 -49 42 -66 41 -13 45 -9 61 64 6 27 17 75 25
105 13 50 25 101 71 300 9 36 22 90 30 120 43 168 47 192 33 205 -8 7 -28 16
-45 19 -27 6 -33 4 -43 -21z"/>
<path d="M5199 9253 c0 -10 0 -110 1 -222 1 -172 4 -210 18 -235 46 -84 109
-118 222 -119 79 -1 111 10 178 61 l32 24 0 -41 0 -41 45 0 45 0 0 295 0 295
-50 0 -50 0 0 -189 c0 -104 -4 -200 -9 -213 -11 -30 -59 -78 -91 -90 -14 -6
-52 -10 -86 -10 -68 -1 -101 15 -137 66 -21 29 -22 43 -26 234 l-3 202 -44 0
c-35 0 -44 -4 -45 -17z"/>
<path d="M6700 9186 c-52 -36 -83 -83 -88 -137 -10 -109 15 -149 164 -260 123
-92 154 -128 154 -179 0 -30 -7 -48 -29 -72 -26 -29 -34 -32 -82 -32 -30 0
-76 8 -104 19 -68 25 -173 100 -197 141 -23 40 -37 42 -65 12 -24 -27 -19 -52
18 -95 81 -96 281 -185 379 -169 174 28 246 200 138 328 -24 29 -206 168 -219
168 -13 0 -59 85 -59 110 0 12 9 38 21 56 52 84 217 59 335 -51 26 -25 53 -45
59 -45 6 0 22 11 35 25 26 27 23 34 -35 89 -85 80 -178 116 -300 116 -79 0
-95 -3 -125 -24z"/>
<path d="M7376 8835 l-28 -46 -41 25 -41 24 -24 -32 -23 -31 21 -15 c11 -8 30
-22 41 -30 l21 -16 -29 -50 c-15 -28 -44 -76 -63 -107 -63 -104 -80 -132 -86
-147 -3 -8 -10 -23 -15 -32 -14 -27 -11 -81 7 -117 21 -42 92 -95 149 -111 25
-7 48 -10 51 -8 3 3 7 22 11 41 5 35 4 36 -35 46 -43 12 -92 60 -92 90 0 20
35 89 83 166 18 28 38 59 45 70 6 11 17 31 24 45 24 50 37 60 66 47 15 -6 45
-24 66 -39 50 -36 61 -35 77 3 14 36 11 41 -75 91 -49 29 -50 37 -14 90 25 36
23 63 -7 76 -43 20 -59 14 -89 -33z"/>
<path d="M3413 8643 c-23 -9 -71 -90 -78 -132 -4 -23 -10 -41 -15 -41 -5 0
-20 14 -35 31 l-26 32 -30 -28 c-16 -16 -29 -34 -29 -41 0 -6 24 -43 53 -80
28 -38 64 -87 79 -109 15 -22 48 -67 73 -100 24 -33 63 -86 85 -117 23 -32 44
-58 47 -58 15 0 73 46 73 58 0 12 -60 97 -130 184 -52 64 -80 127 -80 180 0
58 10 80 57 130 l35 36 -21 31 c-22 30 -33 35 -58 24z"/>
<path d="M4100 8503 c-30 -11 -50 -37 -50 -65 0 -51 16 -68 63 -68 58 0 72 11
72 59 0 54 -41 90 -85 74z"/>
<path d="M7690 8454 c-13 -39 -4 -54 31 -54 9 0 34 -8 55 -17 90 -41 154 -114
154 -175 0 -34 -38 -108 -55 -108 -6 0 -53 36 -105 79 -72 60 -107 83 -151 96
-54 17 -60 17 -101 1 -59 -24 -84 -49 -99 -103 -15 -54 -2 -116 34 -165 37
-51 125 -108 166 -108 20 0 46 -3 58 -6 l23 -6 -20 -28 -19 -27 22 -22 c46
-42 56 -34 240 183 80 95 106 145 107 204 0 109 -118 234 -262 276 -31 9 -58
16 -61 16 -3 0 -11 -16 -17 -36z m-47 -270 c27 -14 106 -76 166 -130 21 -19
-28 -80 -76 -93 -80 -22 -186 31 -217 109 -18 45 -14 63 22 103 29 31 59 34
105 11z"/>
<path d="M2939 8227 c-71 -27 -143 -96 -184 -177 -29 -56 -25 -162 8 -227 37
-72 78 -116 134 -143 26 -13 56 -27 65 -32 25 -11 136 -10 143 2 3 6 15 10 26
10 31 0 103 46 144 92 47 51 85 132 85 180 0 32 -3 37 -30 43 -39 8 -46 3 -55
-41 -18 -99 -137 -204 -232 -204 -33 0 -113 34 -113 48 0 4 74 81 165 172 91
91 165 168 165 172 0 12 -65 68 -104 89 -50 27 -166 35 -217 16z m160 -91 c19
-7 36 -17 39 -24 2 -6 -57 -73 -131 -149 l-135 -137 -21 34 c-43 71 -24 182
43 246 44 42 135 55 205 30z"/>
<path d="M8082 7933 c-139 -68 -205 -228 -153 -371 22 -59 28 -69 80 -125 51
-55 99 -77 167 -77 l57 0 -7 32 c-8 42 -15 48 -66 59 -59 13 -96 42 -130 102
-50 87 -35 172 42 243 60 55 88 68 154 68 50 0 68 -5 105 -30 58 -39 112 -141
103 -195 -5 -34 -3 -37 25 -47 24 -9 32 -7 47 9 21 24 15 117 -12 175 -26 55
-111 137 -168 163 -71 31 -173 28 -244 -6z"/>
<path d="M2520 7699 c-45 -14 -108 -62 -148 -114 -47 -61 -79 -183 -53 -199 5
-3 7 -15 4 -26 l-5 -21 -35 21 c-19 11 -36 20 -38 20 -6 0 -45 -67 -45 -77 0
-5 15 -17 33 -27 17 -11 68 -42 112 -71 103 -67 216 -139 302 -192 37 -24 100
-63 138 -88 39 -25 77 -45 87 -45 9 0 25 15 37 33 l21 32 -24 20 c-13 11 -50
36 -82 56 -33 20 -79 49 -103 64 l-45 28 60 27 c96 44 145 104 170 210 40 174
-94 344 -283 355 -37 3 -84 0 -103 -6z m183 -119 c85 -43 132 -146 108 -237
-13 -49 -41 -86 -94 -124 -84 -61 -222 -23 -292 81 -57 86 -33 207 55 270 65
46 144 50 223 10z"/>
<path d="M8815 7545 c-44 -24 -100 -54 -125 -66 -25 -13 -103 -54 -175 -92
-71 -39 -161 -86 -200 -106 -104 -55 -115 -63 -115 -89 0 -30 17 -62 34 -62 7
0 39 14 71 31 39 21 67 29 84 26 34 -7 128 -40 136 -49 7 -6 -36 -117 -88
-228 -38 -80 -40 -124 -7 -168 l24 -33 21 43 c11 24 46 104 78 178 32 74 62
142 66 150 9 16 62 15 94 -2 24 -12 231 -76 236 -72 2 2 -8 25 -22 51 -27 52
-21 49 -282 139 -44 15 -95 33 -113 41 -34 13 -38 31 -11 43 37 18 191 97 254
131 39 20 94 49 123 64 28 14 52 33 52 41 0 24 -29 74 -43 73 -6 0 -48 -20
-92 -44z"/>
<path d="M2195 7021 c-165 -29 -279 -261 -207 -423 48 -108 162 -178 287 -178
81 0 141 25 199 84 65 65 88 115 94 212 4 72 2 88 -20 136 -29 63 -86 122
-143 148 -46 21 -152 32 -210 21z m188 -125 c81 -48 118 -136 92 -224 -20 -66
-57 -109 -120 -138 -61 -29 -80 -30 -146 -4 -104 41 -149 100 -149 193 0 86
49 167 120 196 45 19 151 7 203 -23z"/>
<path d="M9190 6498 c-19 -5 -66 -13 -103 -18 -38 -5 -92 -14 -120 -20 -93
-18 -231 -42 -307 -51 -41 -5 -80 -15 -87 -22 -10 -9 -9 -34 2 -115 8 -57 18
-108 21 -114 4 -6 10 -40 14 -77 36 -310 321 -460 600 -316 37 19 115 105 141
156 18 36 23 65 27 164 2 67 -1 144 -7 175 -6 30 -16 84 -21 120 -21 143 -14
130 -73 129 -29 -1 -68 -5 -87 -11z m66 -125 c3 -16 11 -41 17 -57 6 -16 11
-94 11 -175 l1 -146 -33 -48 c-41 -58 -100 -99 -174 -121 -70 -20 -97 -20
-171 1 -69 19 -143 84 -176 154 -46 100 -74 321 -41 326 42 5 274 45 335 58
58 12 153 27 212 34 7 0 15 -11 19 -26z"/>
<path d="M1615 6376 c-9 -14 -15 -37 -13 -53 3 -25 8 -29 48 -36 25 -4 65 -13
90 -19 25 -6 74 -16 110 -24 36 -7 99 -19 140 -28 41 -9 102 -21 135 -27 33
-6 83 -17 110 -25 28 -8 78 -18 111 -21 67 -6 63 -9 78 59 6 26 4 27 -41 33
-27 4 -70 13 -98 20 -27 8 -75 19 -105 24 -73 14 -173 35 -290 61 -52 11 -127
27 -166 34 -39 7 -76 16 -82 20 -6 4 -18 -4 -27 -18z"/>
<path d="M1925 6019 c-72 -38 -103 -68 -134 -130 -43 -86 -44 -177 -2 -264 32
-67 65 -101 130 -134 37 -19 62 -23 140 -23 84 0 102 3 148 26 98 50 153 154
153 291 0 60 -5 88 -25 130 -29 65 -50 79 -82 58 -27 -18 -29 -40 -6 -72 11
-16 18 -52 21 -102 4 -70 2 -85 -22 -131 -28 -57 -76 -96 -130 -105 l-33 -5 4
163 c3 90 9 188 14 218 17 104 19 101 -64 101 -54 0 -82 -5 -112 -21z m100
-236 c-3 -93 -8 -178 -11 -190 -5 -28 -35 -30 -81 -5 -45 24 -72 63 -82 119
-24 127 49 237 162 242 18 1 18 -8 12 -166z"/>
<path d="M8821 5579 c-68 -32 -132 -105 -156 -175 -37 -109 -21 -240 39 -318
14 -18 16 -18 45 4 37 26 38 32 9 73 -19 27 -23 45 -23 112 1 81 12 117 52
160 32 36 80 65 108 65 l27 0 -7 -187 c-3 -104 -8 -206 -11 -229 -7 -58 9 -68
93 -59 108 11 174 58 224 155 31 62 32 185 2 251 -25 55 -79 111 -136 141 -62
32 -205 36 -266 7z m237 -98 c46 -23 67 -46 87 -94 31 -75 17 -163 -36 -215
-38 -38 -115 -71 -129 -55 -8 9 4 274 15 341 4 23 12 42 17 42 5 0 25 -9 46
-19z"/>
<path d="M1760 5360 c-11 -7 -12 -17 -4 -46 8 -34 14 -39 54 -50 46 -13 118
-35 200 -60 25 -8 74 -21 110 -30 82 -22 132 -43 125 -54 -3 -4 -69 -45 -147
-91 -145 -84 -162 -93 -233 -133 -38 -21 -40 -25 -43 -75 -2 -42 0 -52 11 -49
8 1 130 71 271 153 274 160 276 162 260 231 -8 32 -14 37 -64 54 -115 38 -256
80 -290 86 -19 4 -46 13 -60 21 -14 7 -35 13 -48 13 -13 0 -35 6 -50 14 -40
20 -75 26 -92 16z"/>
<path d="M9060 4875 c-30 -8 -91 -19 -135 -25 -329 -46 -342 -49 -361 -95 -8
-19 -14 -41 -14 -49 0 -14 49 -57 187 -163 38 -29 92 -72 122 -95 183 -147
211 -156 211 -74 0 23 -25 44 -321 271 -43 33 -79 63 -79 67 0 4 21 9 48 13
26 3 76 12 112 20 36 8 79 15 95 15 25 0 104 12 230 36 19 3 45 51 45 82 0 16
-69 14 -140 -3z"/>
<path d="M2321 4751 c-12 -16 -21 -32 -21 -37 0 -4 18 -23 41 -42 76 -65 109
-187 73 -263 -22 -45 -74 -99 -95 -99 -17 0 -41 54 -58 130 -5 19 -13 46 -19
60 -6 14 -24 70 -41 126 -17 55 -37 109 -44 118 -13 17 -16 17 -68 -8 -63 -30
-99 -61 -137 -119 -25 -39 -27 -50 -27 -143 0 -83 3 -105 18 -121 9 -11 17
-26 17 -34 0 -19 75 -92 120 -115 27 -15 57 -19 130 -19 112 0 155 18 230 95
35 36 50 61 63 108 21 75 21 96 3 164 -26 96 -62 154 -128 202 l-36 27 -21
-30z m-158 -237 c22 -65 46 -135 54 -155 8 -20 13 -47 11 -60 -3 -22 -7 -24
-52 -21 -80 4 -129 43 -170 139 -18 40 -18 44 -1 97 22 70 78 132 110 122 5
-1 27 -56 48 -122z"/>
<path d="M8489 4325 c-51 -26 -106 -83 -131 -135 -46 -96 -50 -112 -46 -181 4
-80 14 -95 55 -82 27 9 28 12 33 94 5 76 9 89 42 140 26 38 51 62 81 77 50 25
135 30 143 9 4 -12 -11 -51 -78 -197 -11 -25 -24 -52 -29 -60 -5 -8 -12 -22
-15 -30 -4 -8 -20 -43 -37 -77 -16 -34 -27 -68 -24 -75 6 -16 112 -48 159 -48
85 1 188 58 233 131 48 75 68 177 46 231 -5 13 -12 35 -15 49 -9 41 -89 123
-149 153 -46 22 -67 26 -138 26 -68 -1 -92 -5 -130 -25z m298 -137 c35 -39 53
-85 53 -136 0 -116 -98 -212 -206 -199 -25 2 -47 7 -50 10 -3 3 8 34 24 68 17
35 53 112 81 172 28 59 56 107 64 107 7 0 23 -10 34 -22z"/>
<path d="M2350 4091 c-79 -27 -114 -47 -164 -95 -62 -61 -93 -111 -112 -185
-17 -66 -13 -184 7 -196 5 -4 9 -14 9 -23 0 -16 35 -91 63 -137 6 -11 43 -71
80 -132 38 -62 74 -113 81 -113 7 0 31 13 52 28 21 16 51 35 66 43 22 11 197
115 318 189 120 73 178 107 193 113 25 9 32 35 15 55 -8 9 -50 77 -93 150
-115 196 -179 261 -303 303 -68 24 -140 23 -212 0z m170 -94 c99 -24 164 -80
245 -213 65 -108 75 -126 70 -135 -5 -8 -248 -158 -322 -199 -40 -22 -113 -68
-147 -92 l-29 -21 -21 29 c-38 52 -126 204 -132 229 -3 14 -10 28 -15 31 -5 3
-9 36 -9 74 0 58 5 78 36 137 40 79 99 126 194 155 69 20 64 20 130 5z"/>
<path d="M8141 3794 c-12 -15 -21 -30 -21 -34 0 -16 34 -40 353 -247 56 -36
116 -75 132 -87 180 -123 205 -134 225 -97 21 41 12 65 -39 96 -27 17 -89 57
-137 89 -49 32 -141 93 -204 134 -63 41 -147 97 -187 123 -40 27 -79 49 -87
49 -8 0 -24 -12 -35 -26z"/>
<path d="M7980 3518 c-75 -30 -168 -125 -192 -195 -41 -117 -14 -218 81 -314
82 -82 177 -107 282 -75 119 36 194 116 224 238 14 56 14 70 1 126 -9 39 -27
79 -47 105 -35 46 -110 107 -132 107 -7 0 -18 5 -24 11 -6 6 -40 13 -75 15
-48 3 -76 -1 -118 -18z m175 -98 c102 -52 152 -150 127 -247 -20 -73 -73 -127
-150 -152 -82 -27 -199 34 -247 130 -31 61 -32 107 -1 167 41 81 101 121 181
122 32 0 66 -8 90 -20z"/>
<path d="M7418 3287 c-16 -13 -28 -28 -28 -34 0 -6 17 -34 38 -62 81 -111 122
-169 122 -174 0 -2 -33 -6 -72 -9 -42 -3 -88 -12 -108 -23 -46 -24 -123 -103
-137 -140 -35 -95 -36 -111 -19 -180 31 -126 104 -204 222 -240 59 -18 86 -19
133 -4 115 35 200 112 221 199 7 27 15 50 18 50 3 0 16 -12 28 -27 l22 -28 37
19 c24 13 35 25 32 36 -2 9 -32 55 -66 101 -244 331 -317 431 -352 482 -22 31
-45 57 -52 57 -7 -1 -24 -11 -39 -23z m160 -363 c77 -32 152 -136 152 -210 0
-83 -74 -172 -161 -195 -185 -50 -341 200 -213 341 66 73 146 96 222 64z"/>
<path d="M3189 3210 c-85 -15 -179 -95 -221 -188 -25 -54 -31 -173 -10 -193 6
-7 12 -20 13 -28 1 -27 64 -105 110 -136 32 -22 64 -33 117 -40 l73 -10 -72
-90 c-39 -50 -85 -104 -102 -122 -26 -28 -28 -34 -17 -48 8 -9 26 -23 40 -30
26 -13 29 -12 51 13 46 52 165 191 256 298 50 60 125 149 167 198 42 50 76 96
76 103 0 12 -56 53 -73 53 -4 0 -13 -11 -19 -25 -15 -34 -38 -32 -38 3 0 37
-41 121 -76 156 -43 43 -97 74 -140 81 -75 12 -89 13 -135 5z m136 -101 c50
-14 102 -61 126 -117 37 -85 19 -154 -62 -233 -46 -46 -64 -57 -100 -62 -99
-13 -178 30 -229 125 -24 44 -25 81 -5 137 22 62 61 107 118 136 56 27 91 31
152 14z"/>
<path d="M3750 2768 c0 -49 10 -59 48 -48 70 20 194 -41 239 -117 27 -47 37
-143 17 -163 -7 -7 -73 23 -215 100 -112 60 -207 110 -211 110 -4 0 -17 -19
-29 -42 -17 -34 -22 -61 -22 -134 -1 -81 2 -96 26 -137 51 -86 141 -139 248
-145 67 -4 84 -1 130 21 135 64 201 206 169 360 -10 50 -20 66 -69 117 -80 81
-145 110 -250 110 l-81 0 0 -32z m-35 -242 c11 -7 72 -40 135 -73 142 -73 160
-85 160 -100 0 -20 -56 -59 -104 -73 -117 -33 -246 65 -246 187 0 72 15 87 55
59z"/>
<path d="M6851 2669 c-89 -18 -176 -76 -225 -151 -17 -26 -17 -30 -2 -53 24
-37 46 -31 98 29 49 56 126 96 185 96 48 0 103 -23 139 -58 l36 -35 -23 -18
c-13 -10 -31 -19 -39 -19 -9 0 -20 -4 -25 -9 -6 -5 -38 -21 -73 -35 -83 -35
-211 -93 -242 -111 -35 -19 -35 -44 -1 -91 78 -109 181 -152 300 -127 36 7 72
20 81 28 9 8 21 15 27 15 6 0 31 22 55 49 56 62 83 140 75 216 -6 57 -45 149
-82 193 -53 63 -185 101 -284 81z m267 -316 c3 -55 0 -64 -31 -104 -38 -51
-105 -88 -160 -88 -46 -1 -128 39 -150 72 -15 23 -15 26 1 40 9 8 28 18 42 22
23 7 107 44 225 101 28 13 55 22 60 20 6 -1 11 -30 13 -63z"/>
<path d="M4418 2370 c-45 -77 -98 -163 -115 -192 -18 -29 -38 -64 -45 -78 -7
-14 -26 -45 -42 -69 -15 -24 -38 -63 -50 -85 -13 -23 -37 -63 -55 -91 l-32
-50 23 -7 c59 -16 75 -10 111 45 38 57 243 398 268 446 21 39 40 63 47 57 9
-10 22 -94 32 -211 5 -66 14 -142 20 -170 5 -27 12 -99 16 -158 6 -105 7 -109
33 -118 73 -28 74 -27 127 61 27 45 56 92 64 105 8 13 35 57 59 97 24 40 58
96 77 124 18 27 44 72 59 100 14 27 31 49 38 49 7 0 15 -21 18 -50 27 -222 51
-432 58 -517 3 -42 9 -80 13 -84 5 -4 27 -8 50 -8 l41 -1 -2 65 c-1 36 -8 115
-16 175 -8 61 -19 161 -25 223 -6 62 -15 135 -20 164 -6 28 -10 74 -10 102 0
60 -6 71 -43 85 -67 26 -78 19 -142 -90 -33 -56 -69 -116 -80 -135 -98 -166
-179 -295 -190 -304 -11 -9 -15 -2 -20 37 -3 26 -10 71 -15 98 -5 28 -12 91
-15 140 -4 50 -13 128 -21 175 -7 47 -14 108 -14 137 l0 52 -37 6 c-21 3 -48
8 -60 11 -18 3 -33 -16 -105 -136z"/>
<path d="M6362 2490 c-20 -9 -22 -14 -16 -47 4 -21 11 -49 16 -63 6 -14 17
-52 25 -85 46 -193 43 -232 -19 -294 -22 -23 -48 -41 -57 -41 -10 0 -25 -6
-34 -12 -14 -11 -15 -19 -6 -50 7 -26 16 -38 28 -38 36 0 106 49 135 95 16 25
30 45 32 45 2 0 8 -19 14 -41 11 -40 12 -41 47 -36 52 9 58 18 44 69 -6 24
-25 94 -41 156 -16 62 -34 128 -39 145 -6 18 -21 71 -33 119 -21 81 -25 88
-48 87 -14 0 -35 -4 -48 -9z"/>
<path d="M5720 2382 c-48 -15 -69 -92 -34 -126 21 -22 77 -20 97 2 45 49 -3
143 -63 124z"/>
</g>
</svg>
